<?xml version="1.0" standalone="no"?><!DOCTYPE svg PUBLIC "-//W3C//DTD SVG 1.1//EN" "http://www.w3.org/Graphics/SVG/1.1/DTD/svg11.dtd"><svg class="icon" width="200px" height="200.00px" viewBox="0 0 1024 1024" version="1.1" xmlns="http://www.w3.org/2000/svg"><path fill="currentColor" d="M771.968 552.96a167.296 167.296 0 0 1 145.728 249.408l-6.208 10.112 77.248 77.248a24.832 24.832 0 0 1 3.2 31.104l-3.2 3.84-12.352 12.416a24.832 24.832 0 0 1-31.104 3.2l-3.84-3.2-77.312-77.248a167.296 167.296 0 1 1-92.16-306.816z m0 66.944a100.416 100.416 0 0 0 0 200.832c15.488 0 29.952-3.84 43.072-10.048 20.672-9.92 37.376-26.624 47.296-47.36 6.272-13.056 10.048-27.52 10.048-43.008 0-55.424-44.928-100.416-100.416-100.416z m94.912-497.92a98.688 98.688 0 0 1 98.176 88.96l0.512 9.728v395.84a221.696 221.696 0 0 0-397.632 196.352L126.72 812.8a98.688 98.688 0 0 1-98.176-88.96l-0.512-9.728v-493.44a98.688 98.688 0 0 1 88.96-98.24l9.728-0.448h740.16zM336.448 487.296c-108.8 0-197.632 66.816-203.84 151.04l-0.384 9.408v11.52h46.72c-0.256-2.432 294.528-2.56 313.984-0.256l1.024 0.192h46.72v-11.52c0-88.512-91.52-160.384-204.224-160.384z m0-236.416a118.208 118.208 0 1 0 0 236.416 118.208 118.208 0 0 0 0-236.416z m530.432 112.128h-148.032a24.64 24.64 0 0 0-5.184 48.768l5.12 0.576h148.096a24.64 24.64 0 1 0 0-49.28z m0-98.688h-222.08a24.704 24.704 0 0 0-4.928 48.832l4.928 0.512h222.08a24.704 24.704 0 0 0 0-49.344z" /></svg>