<?xml version="1.0" standalone="no"?><!DOCTYPE svg PUBLIC "-//W3C//DTD SVG 1.1//EN" "http://www.w3.org/Graphics/SVG/1.1/DTD/svg11.dtd"><svg class="icon" width="200px" height="200.00px" viewBox="0 0 1024 1024" version="1.1" xmlns="http://www.w3.org/2000/svg"><path fill="currentColor" d="M512 34.944c80.256 2.048 148.8 28.032 205.632 78.08 56.832 49.92 93.44 114.24 109.888 192.64h12.352c34.112 1.472 62.464 14.208 85.248 38.336 22.784 24.128 34.816 54.336 36.032 90.56v425.664c-1.28 36.224-13.312 66.304-36.032 90.56-22.72 24.192-51.136 36.928-85.248 38.272H184.128a119.424 119.424 0 0 1-85.248-38.272c-22.784-24.128-34.816-54.4-36.032-90.56V434.496c1.28-36.224 13.312-66.432 36.032-90.56s51.136-36.864 85.248-38.208h12.352c16.384-78.464 53.12-142.72 109.888-192.768C363.328 63.04 431.808 36.928 512 34.944z m52.672 373.056a11.584 11.584 0 0 0-13.632 7.104 42.56 42.56 0 0 1-39.04 27.136 42.56 42.56 0 0 1-39.04-27.136 11.584 11.584 0 0 0-13.632-7.104 209.92 209.92 0 0 0-94.528 55.616 13.056 13.056 0 0 0-0.448 17.664c7.488 8.32 11.776 19.392 11.776 31.168 0 24.96-19.072 45.184-42.56 45.184a40.256 40.256 0 0 1-11.968-1.792 11.648 11.648 0 0 0-14.592 8.448 240 240 0 0 0-2.048 118.976c1.664 7.04 8.64 11.072 15.104 8.768a40.192 40.192 0 0 1 13.44-2.304c23.552 0 42.624 20.224 42.624 45.184 0 13.44-5.504 25.856-14.912 34.368a13.056 13.056 0 0 0-0.704 18.304c26.112 27.968 58.688 48.32 94.528 58.88 6.848 1.92 13.824-2.944 14.784-10.432 2.816-22.272 20.8-39.168 42.176-39.168s39.36 16.896 42.176 39.168c0.96 7.488 7.936 12.416 14.784 10.368a210.944 210.944 0 0 0 94.528-58.816 13.056 13.056 0 0 0-0.64-18.304 46.272 46.272 0 0 1-14.976-34.368c0-24.96 19.072-45.184 42.56-45.184 4.672 0 9.152 0.832 13.44 2.304 6.528 2.304 13.504-1.728 15.168-8.768a240.64 240.64 0 0 0-2.048-118.976 11.648 11.648 0 0 0-14.592-8.448 40.256 40.256 0 0 1-11.968 1.792c-23.488 0-42.56-20.224-42.56-45.184 0-11.776 4.288-22.848 11.776-31.168a13.056 13.056 0 0 0-0.448-17.664 209.92 209.92 0 0 0-94.528-55.68zM512 541.12c40.768 0 73.856 35.136 73.856 78.464 0 43.264-33.088 78.4-73.856 78.4-40.768 0-73.856-35.136-73.856-78.4 0-43.328 33.088-78.464 73.856-78.464z m0-376.32c-43.52 0-82.56 12.864-116.992 38.72A193.536 193.536 0 0 0 324.48 305.728h375.168A193.664 193.664 0 0 0 628.992 203.52 190.272 190.272 0 0 0 512 164.8z" /></svg>