<?xml version="1.0" standalone="no"?><!DOCTYPE svg PUBLIC "-//W3C//DTD SVG 1.1//EN" "http://www.w3.org/Graphics/SVG/1.1/DTD/svg11.dtd"><svg class="icon" width="200px" height="200.00px" viewBox="0 0 1024 1024" version="1.1" xmlns="http://www.w3.org/2000/svg"><path fill="currentColor" d="M727.616 451.648a256.896 256.896 0 1 1 0 513.792 256.896 256.896 0 0 1 0-513.792z m-474.496 81.28v99.648h66.496V532.864h150.08a299.2 299.2 0 0 0 25.856 365.696H120.128a66.688 66.688 0 0 1-66.56-66.496V532.864h199.552z m505.728 15.552a34.112 34.112 0 0 1-62.528 0 9.408 9.408 0 0 0-10.944-5.376 170.88 170.88 0 0 0-75.776 41.984 9.408 9.408 0 0 0-0.32 13.312 34.112 34.112 0 0 1-34.304 56.256 9.408 9.408 0 0 0-11.648 6.4 171.2 171.2 0 0 0-1.664 89.792c1.28 5.312 6.912 8.32 12.16 6.592a34.048 34.048 0 0 1 32.896 58.24 9.408 9.408 0 0 0-0.512 13.888c20.928 21.12 46.976 36.48 75.776 44.352a9.408 9.408 0 0 0 11.84-7.808 34.112 34.112 0 0 1 67.584 0c0.768 5.632 6.4 9.344 11.84 7.808 28.8-7.936 54.848-23.296 75.776-44.352a9.408 9.408 0 0 0-0.576-13.824 33.984 33.984 0 0 1 22.208-60.032c3.712 0 7.36 0.64 10.752 1.728a9.408 9.408 0 0 0 12.16-6.592 171.456 171.456 0 0 0-1.664-89.792 9.408 9.408 0 0 0-11.712-6.4 34.112 34.112 0 0 1-34.24-56.256 9.408 9.408 0 0 0-0.32-13.312 170.88 170.88 0 0 0-75.776-41.984 9.408 9.408 0 0 0-11.008 5.376z m-31.232 95.104a59.2 59.2 0 1 1 0 118.4 59.2 59.2 0 0 1 0-118.4z m-9.088-542.912a66.688 66.688 0 0 1 66.496 66.56V266.88h132.992a66.688 66.688 0 0 1 66.496 66.56v166.208h-43.008a299.2 299.2 0 0 0-445.952 0h-176v-33.28H253.184v33.28H53.632V333.376A66.688 66.688 0 0 1 120.128 266.88h132.992V167.168a66.688 66.688 0 0 1 66.496-66.496z m-0.128 66.56H319.616V266.88h398.912V167.296l-0.128-0.128z" /></svg>