<?xml version="1.0" standalone="no"?><!DOCTYPE svg PUBLIC "-//W3C//DTD SVG 1.1//EN" "http://www.w3.org/Graphics/SVG/1.1/DTD/svg11.dtd"><svg class="icon" width="200px" height="200.00px" viewBox="0 0 1024 1024" version="1.1" xmlns="http://www.w3.org/2000/svg"><path fill="currentColor" d="M945.92 849.472l-88.128-89.856a217.216 217.216 0 0 0-30.72-290.176 207.04 207.04 0 0 0-285.952 10.432 217.28 217.28 0 0 0-10.24 291.648 207.104 207.104 0 0 0 284.48 31.36l83.072 84.736a176.448 176.448 0 0 1-85.824 22.144H212.608c-99.456 0-180.032-82.176-180.032-183.552V542.592c0-101.376 80.64-183.552 180.032-183.552h600c99.392 0 179.968 82.176 179.968 183.552v183.616c0 47.424-17.6 90.688-46.72 123.264z m-150.272-109.952c-58.56 59.776-153.6 59.776-212.16 0a155.136 155.136 0 0 1 0-216.384 148.032 148.032 0 0 1 144.96-39.616c51.712 14.144 92.16 55.424 106.048 108.16a155.072 155.072 0 0 1-38.848 147.84z m-433.088-625.28h300.032c16.576 0 30.016 13.696 30.016 30.592s-13.44 30.592-30.016 30.592H362.56a30.272 30.272 0 0 1-29.952-30.592c0-16.896 13.44-30.592 29.952-30.592zM242.56 236.608h540.032c16.576 0 30.016 13.696 30.016 30.592s-13.44 30.592-30.016 30.592H242.56a30.272 30.272 0 0 1-29.952-30.592c0-16.896 13.44-30.592 29.952-30.592z" /></svg>