<?xml version="1.0" standalone="no"?><!DOCTYPE svg PUBLIC "-//W3C//DTD SVG 1.1//EN" "http://www.w3.org/Graphics/SVG/1.1/DTD/svg11.dtd"><svg class="icon" width="200px" height="200.00px" viewBox="0 0 1024 1024" version="1.1" xmlns="http://www.w3.org/2000/svg"><path fill="currentColor" d="M929.408 251.904c27.648 0 50.048 22.4 50.048 50.112v550.976c0 27.648-22.4 50.048-50.048 50.048H94.592a50.112 50.112 0 0 1-50.048-50.048V302.016c0-27.648 22.4-50.112 50.048-50.112z m-411.52 121.6H490.88a20.288 20.288 0 0 0-20.288 20.224v13.952c0 11.136-7.296 22.656-16.32 25.408-9.024 2.944-37.12 7.872-44.928 0l-9.92-9.92a20.224 20.224 0 0 0-28.672 0l-19.008 19.072a20.16 20.16 0 0 0 0 28.608l9.856 9.92c7.936 7.936 10.88 21.056 6.528 29.44-4.352 8.192-20.864 31.936-32 31.936l-13.888-0.128a20.416 20.416 0 0 0-20.352 20.288v27.008c0 11.136 9.088 20.288 20.288 20.288h13.952c11.072 0 22.656 7.296 25.6 16.32 2.88 9.024 7.744 37.12-0.192 44.928l-9.92 9.92a20.16 20.16 0 0 0 0 28.608l19.072 19.136a20.352 20.352 0 0 0 28.608 0l10.048-9.92c7.808-7.808 21.056-10.88 29.312-6.528 8.32 4.352 31.872 20.8 31.872 32v13.888c0 11.136 9.088 20.288 20.288 20.288h27.008a20.288 20.288 0 0 0 20.224-20.288v-13.888c0-11.136 7.424-22.656 16.448-25.6 8.96-2.816 36.992-7.68 44.928 0.064l9.92 9.92a20.352 20.352 0 0 0 28.608 0l19.008-19.072a20.288 20.288 0 0 0 0-28.672l-9.856-9.92c-7.872-7.808-10.752-21.056-6.464-29.312 4.352-8.32 20.736-32 31.872-32h13.952a20.288 20.288 0 0 0 20.288-20.16v-27.008a20.352 20.352 0 0 0-20.352-20.16h-13.888c-11.136 0-22.656-7.36-25.472-16.384-2.944-8.96-7.808-36.992 0-44.928l9.92-9.856a20.288 20.288 0 0 0 0-28.736l-19.072-19.072a20.16 20.16 0 0 0-28.608 0l-9.92 9.92c-7.808 7.872-20.992 10.752-29.376 6.528-8.192-4.288-31.872-20.8-31.872-32v-13.888a20.352 20.352 0 0 0-20.224-20.224z m-13.568 114.56a87.808 87.808 0 1 1 0 175.616 87.808 87.808 0 0 1 0-175.616z m364.288-366.976a40.384 40.384 0 0 1 37.12 37.312v19.712a40.384 40.384 0 0 1-43.136 36.416H161.408a40.384 40.384 0 0 1-43.072-36.416v-19.712a40.384 40.384 0 0 1 43.072-37.376z" /></svg>