<?xml version="1.0" standalone="no"?><!DOCTYPE svg PUBLIC "-//W3C//DTD SVG 1.1//EN" "http://www.w3.org/Graphics/SVG/1.1/DTD/svg11.dtd"><svg class="icon" width="200px" height="200.00px" viewBox="0 0 1024 1024" version="1.1" xmlns="http://www.w3.org/2000/svg"><path fill="currentColor" d="M896.256 239.808L549.568 38.72A74.688 74.688 0 0 0 512 28.48c-12.864 0-25.792 3.456-37.504 10.24L127.744 239.872c-26.176 15.168-42.496 44.8-42.496 77.184v390.016c0 32.32 16.32 62.016 42.496 77.184l346.752 201.024c11.712 6.784 24.64 10.24 37.504 10.24 12.928 0 25.792-3.456 37.568-10.24l346.688-201.152c26.176-15.168 42.496-44.8 42.496-77.184V316.928c0-32.32-16.384-62.016-42.496-77.12z m-270.464 187.52c0-15.744 12.8-28.48 28.48-28.48h56.96c15.68 0 28.416 12.736 28.416 28.48v227.072c0 15.68-12.8 28.416-28.48 28.416h-56.896a28.48 28.48 0 0 1-28.48-28.416V427.328z m-170.688-114.56c0-15.68 12.8-28.416 28.416-28.416h56.96c15.68 0 28.416 12.736 28.416 28.48v341.568c0 15.68-12.8 28.416-28.416 28.416h-56.96a28.48 28.48 0 0 1-28.416-28.416V312.832z m-170.752 199.68c0-15.68 12.8-28.416 28.48-28.416h56.896c15.68 0 28.48 12.8 28.48 28.48v141.888c0 15.68-12.8 28.416-28.48 28.416h-56.96a28.48 28.48 0 0 1-28.416-28.416V512.512z m498.56 227.2H242.24a14.272 14.272 0 0 1 0-28.48h540.672a14.272 14.272 0 0 1 0 28.48z" /></svg>