<?xml version="1.0" standalone="no"?><!DOCTYPE svg PUBLIC "-//W3C//DTD SVG 1.1//EN" "http://www.w3.org/Graphics/SVG/1.1/DTD/svg11.dtd"><svg class="icon" width="200px" height="200.00px" viewBox="0 0 1024 1024" version="1.1" xmlns="http://www.w3.org/2000/svg"><path fill="currentColor" d="M893.44 64.832c40.192 0 62.464 49.024 62.464 89.152v552.512c0 44.544-17.856 75.776-62.4 75.776H599.424v89.088h80.192c8.96 0 4.48 17.792 4.48 26.752v53.44c0 8.96 4.48 4.48-4.48 4.48H336.64c-8.96 0-4.48 4.48-4.48-8.96v-53.44c0-8.96-4.48-26.752 4.48-26.752H421.12v-89.088H127.104c-40.128 0-62.4-31.168-62.4-75.776V153.984c0-40.128 22.272-89.152 62.4-89.152zM510.336 238.72c-115.84 0-218.304 66.816-298.496 169.28-4.48 4.48-4.48 17.856 0 26.752 80.192 102.464 182.656 164.864 298.496 164.864 115.84 0 218.368-62.4 298.56-164.864a38.08 38.08 0 0 0 0-31.168c-80.192-102.528-182.656-164.864-298.56-164.864z m-8.896 31.168a156.672 156.672 0 0 1 164.864 164.864C661.76 514.88 594.944 577.28 519.232 581.76c-93.568 8.896-169.344-71.296-164.864-164.864a154.624 154.624 0 0 1 147.008-147.072z m11.904 88.768l-7.424 0.32c-35.648 4.48-62.4 31.232-62.4 62.4 0 40.128 31.232 75.776 71.296 71.296 31.168-4.48 57.92-31.168 62.4-62.4 0-40.064-31.232-75.712-71.296-71.296z" /></svg>