<?xml version="1.0" standalone="no"?><!DOCTYPE svg PUBLIC "-//W3C//DTD SVG 1.1//EN" "http://www.w3.org/Graphics/SVG/1.1/DTD/svg11.dtd"><svg class="icon" width="200px" height="200.00px" viewBox="0 0 1024 1024" version="1.1" xmlns="http://www.w3.org/2000/svg"><path fill="currentColor" d="M512 27.84a484.16 484.16 0 1 0 0 968.32A484.16 484.16 0 0 0 512 27.84z m288.96 700.288c-1.92 5.376-5.312 15.36-15.36 15.36-6.208 0-10.944-4.224-14.784-8.32-19.52-20.544-40.32-40.832-60.352-60.48l-1.024-1.024c-8.768-8.64-17.92-10.88-28.032-7.04a23.552 23.552 0 0 0-16.192 20.48c-1.152 8.832 2.112 16.448 10.432 24.704 15.616 15.36 31.168 30.848 47.04 46.592l30.016 29.888-12.352 6.464c-16 8.384-33.152 12.608-51.008 12.608a116.928 116.928 0 0 1-115.2-103.104 100.736 100.736 0 0 1 4.224-48.128s-0.384-0.64-1.6-1.792c-76.544-76.224-144.32-144-207.36-207.232-1.6-1.6-2.048-1.6-2.176-1.6a11.52 11.52 0 0 0-2.944 0.512 116.608 116.608 0 0 1-145.6-88.64c-5.312-26.368-2.56-50.56 8.192-72.064l2.368-4.672 5.12-0.832c9.728-1.536 14.4 4.736 16.32 7.232 0.192 0.256 0.384 0.576 0.64 0.768l26.88 26.752c11.264 11.328 22.592 22.656 33.984 33.92 12.928 12.608 27.648 13.952 38.848 2.944a23.296 23.296 0 0 0 7.488-17.92 32.256 32.256 0 0 0-10.24-20.8c-15.36-15.616-30.976-31.104-46.976-47.104l-32.256-32.128 14.272-5.824c18.112-7.424 35.008-11.008 51.648-11.008a116.352 116.352 0 0 1 110.72 147.84c-0.896 3.2-0.896 3.2 1.92 5.952 56.704 56.576 131.392 131.008 205.44 205.44 1.984 2.048 2.688 2.048 3.52 2.048a19.328 19.328 0 0 0 4.16-0.64c10.752-2.56 21.44-3.84 31.616-3.84 32.896 0 61.44 13.12 84.8 39.04 30.08 33.28 38.272 73.28 23.808 115.648z" /></svg>