<?xml version="1.0" standalone="no"?><!DOCTYPE svg PUBLIC "-//W3C//DTD SVG 1.1//EN" "http://www.w3.org/Graphics/SVG/1.1/DTD/svg11.dtd"><svg class="icon" width="200px" height="200.00px" viewBox="0 0 1024 1024" version="1.1" xmlns="http://www.w3.org/2000/svg"><path fill="currentColor" d="M916.992 279.232c0 4.8 55.168 535.168-388.8 710.4l-4.8 2.368h-24.064l-4.8-2.368C50.56 814.528 105.792 284.032 108.16 279.232l2.368-21.632h21.696c9.6 0 83.904-7.232 93.568-100.8l2.368-16.832 14.464-7.232C449.024 53.504 489.792 39.168 499.456 34.368L504.256 32h7.232c7.168 0 7.168 0 271.168 98.368l14.4 7.168 2.432 16.832c12.032 98.432 91.136 103.232 93.568 103.232h21.632l2.304 21.632z m-405.248-47.232L440.832 380.096l-160.512 24.96 116.8 116.8-27.072 164.8 143.936-77.12 143.872 77.12-27.072-164.8 116.608-116.8-160.64-24.96-75.008-148.096z" /></svg>