<?xml version="1.0" standalone="no"?><!DOCTYPE svg PUBLIC "-//W3C//DTD SVG 1.1//EN" "http://www.w3.org/Graphics/SVG/1.1/DTD/svg11.dtd"><svg class="icon" width="200px" height="200.00px" viewBox="0 0 1024 1024" version="1.1" xmlns="http://www.w3.org/2000/svg"><path fill="currentColor" d="M509.76 33.088a350.336 350.336 0 0 0-245.76 100.224 339.2 339.2 0 0 0-101.76 241.984v467.456H857.6V375.296a339.456 339.456 0 0 0-101.888-241.92A350.72 350.72 0 0 0 509.76 33.024z m-28.352 697.6l-8.512-226.56H301.76L526.848 220.16l19.2 183.04 162.368 5.696-227.072 321.792zM33.088 938.24c0-28.928 23.36-52.352 52.288-52.352H938.24a52.288 52.288 0 1 1 0 104.64H85.376a52.288 52.288 0 0 1-52.288-52.288z" /></svg>