<?xml version="1.0" standalone="no"?><!DOCTYPE svg PUBLIC "-//W3C//DTD SVG 1.1//EN" "http://www.w3.org/Graphics/SVG/1.1/DTD/svg11.dtd"><svg class="icon" width="200px" height="200.00px" viewBox="0 0 1024 1024" version="1.1" xmlns="http://www.w3.org/2000/svg"><path fill="currentColor" d="M485.952 54.912a44.16 44.16 0 0 1 19.84 37.248v801.088h50.56V164.16a44.416 44.416 0 0 1 66.752-38.208l241.024 140.544a44.416 44.416 0 0 1 21.888 38.464v588.736h47.616c8.704 0 15.68 7.04 15.744 15.808v51.072a16.192 16.192 0 0 1-16 15.744H90.368a15.808 15.808 0 0 1-15.808-15.808v-51.264c0-8.704 7.04-15.808 15.808-15.808h47.296V254.208c0-17.856 10.624-33.92 27.008-40.96L443.84 51.392a44.16 44.16 0 0 1 42.112 3.52z m263.424 568.448h-64a32 32 0 0 0-32 32v64a32 32 0 0 0 32 32h64a32 32 0 0 0 32-32v-64a32 32 0 0 0-32-32zM352 577.92h-64a32 32 0 0 0-32 32v64a32 32 0 0 0 32 32h64a32 32 0 0 0 32-32v-64a32 32 0 0 0-32-32z m397.376-132.8h-64a32 32 0 0 0-32 32v64a32 32 0 0 0 32 32h64a32 32 0 0 0 32-32v-64a32 32 0 0 0-32-32zM352 399.68h-64a32 32 0 0 0-32 32v64a32 32 0 0 0 32 32h64a32 32 0 0 0 32-32v-64a32 32 0 0 0-32-32z" /></svg>