<?xml version="1.0" standalone="no"?><!DOCTYPE svg PUBLIC "-//W3C//DTD SVG 1.1//EN" "http://www.w3.org/Graphics/SVG/1.1/DTD/svg11.dtd"><svg class="icon" width="200px" height="200.00px" viewBox="0 0 1024 1024" version="1.1" xmlns="http://www.w3.org/2000/svg"><path fill="currentColor" d="M963.648 641.024h-258.112l-64.512 129.088H382.976l-64.512-129.088H60.352v193.6c0 70.976 58.048 129.024 129.024 129.024h645.248a129.408 129.408 0 0 0 129.024-129.024v-193.6zM253.888 576.512H124.864V189.44c0-35.456 29.056-64.512 64.512-64.512 35.52 0 64.512 29.056 64.512 64.512v387.2zM770.112 60.352H447.488a129.408 129.408 0 0 0-129.024 129.024v387.2h580.672v-387.2A129.408 129.408 0 0 0 770.112 60.352z m0 387.136H447.488V382.976h322.56v64.512z m0-193.6H447.488V189.44h322.56v64.512z" /></svg>