<?xml version="1.0" standalone="no"?><!DOCTYPE svg PUBLIC "-//W3C//DTD SVG 1.1//EN" "http://www.w3.org/Graphics/SVG/1.1/DTD/svg11.dtd"><svg class="icon" width="200px" height="200.00px" viewBox="0 0 1024 1024" version="1.1" xmlns="http://www.w3.org/2000/svg"><path fill="currentColor" d="M845.056 111.104c28.864 0 52.48 22.528 54.08 50.944l0.128 3.2v111.68h69.312c35.456 9.472 53.888 29.12 55.36 59.008l0.064 3.84v520.576c-3.2 34.176-18.944 52.864-47.36 56.064l-3.648 0.32H150.4c-31.104-1.92-50.944-19.328-59.456-52.032l-0.96-4.16V793.6h-35.84a54.208 54.208 0 0 1-54.08-51.008L0 739.392v-574.08c0-28.928 22.528-52.48 51.008-54.144l3.2-0.064h790.848z m107.584 231.744h-53.376v396.608c0 28.8-22.592 52.416-51.008 54.08l-3.2 0.064H147.904v68.352h804.736v-519.04zM450.752 243.84a206.656 206.656 0 1 0 0 413.248 206.656 206.656 0 0 0 0-413.248zM525.44 317.568c16.512 2.048 25.792 11.328 27.776 27.84a25.152 25.152 0 0 1-5.888 16.128L500.48 427.328h30.72c10.752 0.896 16.512 6.272 17.6 16.064-0.96 9.856-6.848 15.168-17.6 16.128h-54.144v24.832H531.2c10.752 0.96 16.512 6.336 17.6 16.128-0.96 9.792-6.848 15.168-17.6 16.128h-54.144v45.376c-0.896 16.64-10.176 24.832-27.776 24.832-17.152 0-26.56-8.192-27.52-24.832v-45.44h-54.08c-10.752-0.896-16.64-6.272-17.6-16 0.896-9.728 6.848-15.104 17.6-16.192h54.08V459.52h-54.08c-10.752-0.96-16.64-6.272-17.6-16.128 0.896-9.6 6.848-15.04 17.6-16.064h30.72l-46.848-65.792a25.152 25.152 0 0 1-5.952-16.128c1.92-16.512 11.2-25.792 27.84-27.84a28.8 28.8 0 0 1 21.888 11.712l54.08 77.44 54.144-77.44a28.8 28.8 0 0 1 21.888-11.712z" /></svg>