<?xml version="1.0" standalone="no"?><!DOCTYPE svg PUBLIC "-//W3C//DTD SVG 1.1//EN" "http://www.w3.org/Graphics/SVG/1.1/DTD/svg11.dtd"><svg class="icon" width="200px" height="200.00px" viewBox="0 0 1024 1024" version="1.1" xmlns="http://www.w3.org/2000/svg"><path fill="currentColor" d="M911.36 76.288H112.64a36.352 36.352 0 0 0-36.352 36.288v798.848c0 19.968 16.32 36.288 36.288 36.288h798.848a36.352 36.352 0 0 0 36.288-36.288V112.576a36.352 36.352 0 0 0-36.288-36.288z m-193.6 191.68h75.456v413.824h-75.456V267.968zM532.672 474.88h75.456v206.912h-75.52V474.88zM347.52 405.952H423.04v275.84H347.52v-275.84z m493.056 432.64H249.408a64 64 0 0 1-64-64V183.36a34.496 34.496 0 0 1 68.928 0v586.24h586.24a34.496 34.496 0 1 1 0 68.992z" /></svg>