<?xml version="1.0" standalone="no"?><!DOCTYPE svg PUBLIC "-//W3C//DTD SVG 1.1//EN" "http://www.w3.org/Graphics/SVG/1.1/DTD/svg11.dtd"><svg class="icon" width="200px" height="200.00px" viewBox="0 0 1024 1024" version="1.1" xmlns="http://www.w3.org/2000/svg"><path fill="currentColor" d="M865.664 111.744h-151.552a71.232 71.232 0 0 0-69.248-53.76H569.792a63.616 63.616 0 0 0-116.8 0H376.704c-32.64 0-61.184 22.144-69.248 53.76H155.968a68.992 68.992 0 0 0-69.12 69.952V934.4a69.76 69.76 0 0 0 69.184 69.952h708.48a72 72 0 0 0 72.704-69.952V181.696a70.144 70.144 0 0 0-71.552-69.952z m-353.152 33.792a55.936 55.936 0 1 1-57.216 56 56.64 56.64 0 0 1 57.216-56z m218.432 579.072a26.24 26.24 0 0 1-26.304 25.664h-384a26.24 26.24 0 0 1-26.24-25.6v-23.36a26.24 26.24 0 0 1 26.24-25.664h384a26.24 26.24 0 0 1 26.24 25.664v23.296z m0-236.608a26.24 26.24 0 0 1-26.304 25.664h-384a26.24 26.24 0 0 1-26.24-25.6v-23.296a26.24 26.24 0 0 1 26.24-25.664h384a26.24 26.24 0 0 1 26.24 25.664v23.232z" /></svg>