<?xml version="1.0" standalone="no"?><!DOCTYPE svg PUBLIC "-//W3C//DTD SVG 1.1//EN" "http://www.w3.org/Graphics/SVG/1.1/DTD/svg11.dtd"><svg class="icon" width="200px" height="200.00px" viewBox="0 0 1024 1024" version="1.1" xmlns="http://www.w3.org/2000/svg"><path fill="currentColor" d="M414.72 116.608c-24.832-24.832-64.192-24.832-86.976 0L33.792 408.448a62.464 62.464 0 0 0 0 89.088l409.92 409.856c24.832 24.832 64.128 24.832 86.912 0l43.52-43.456-219.52-219.456a20.032 20.032 0 0 1 0-28.992c8.32-8.256 20.736-8.256 28.992 0l219.52 219.52 57.92-58.048-291.84-293.952a20.032 20.032 0 0 1 0-28.992c8.192-8.32 20.672-8.32 28.928 0l293.952 294.016 57.984-57.984L530.56 468.48a20.032 20.032 0 0 1 0-28.992c8.32-8.32 20.736-8.32 28.992 0l221.504 219.456 80.768-86.976L414.72 116.608z m575.488 235.968l-176-176c-24.768-24.768-64.128-24.768-86.912 0L627.904 278.144l262.976 264.96 99.328-99.328c24.832-26.944 24.832-66.304 0-91.136z" /></svg>