<?xml version="1.0" standalone="no"?><!DOCTYPE svg PUBLIC "-//W3C//DTD SVG 1.1//EN" "http://www.w3.org/Graphics/SVG/1.1/DTD/svg11.dtd"><svg class="icon" width="200px" height="200.00px" viewBox="0 0 1024 1024" version="1.1" xmlns="http://www.w3.org/2000/svg"><path fill="currentColor" d="M87.04 295.36c32.704 14.912 77.376 29.824 133.952 38.72 56.576 8.96 119.04 14.912 184.576 14.912 65.472 0 128-3.008 184.576-14.912 56.512-8.96 101.184-20.8 133.952-38.72 32.704-14.848 47.616-32.704 47.616-53.568v-50.56c0-17.92-14.912-35.776-47.616-53.632a521.152 521.152 0 0 0-133.952-38.72c-56.576-8.96-119.104-14.848-184.576-14.848-65.536 0-128 2.944-184.576 14.848a521.152 521.152 0 0 0-133.952 38.72c-32.768 14.912-50.624 32.768-50.624 53.568v53.632c0 17.856 17.856 35.712 50.56 50.56z m306.56 288.768a1089.92 1089.92 0 0 1-202.368-17.856c-65.536-11.904-116.096-29.76-154.88-50.56v68.48c0 17.792 14.912 35.712 47.68 53.568 32.768 14.848 77.44 29.76 133.952 38.656 50.624 8.96 107.2 11.904 166.72 14.912v-29.76a307.2 307.2 0 0 1 8.96-77.44z m-202.368 154.88c-65.536-11.968-116.096-29.824-154.88-50.688v68.48c0 17.92 14.912 35.712 47.68 53.568 32.768 14.912 77.44 29.824 133.952 38.72 56.576 8.96 119.04 14.912 184.576 14.912h53.568a320.832 320.832 0 0 1-56.512-104.192c-74.432-3.008-142.912-11.904-208.384-20.864z m312.576-330.496c-32.768 2.944-65.536 2.944-101.248 2.944-74.432 0-145.856-5.952-211.328-17.856-65.536-11.904-116.096-29.76-154.88-50.56v68.48c0 17.856 14.912 35.712 47.68 53.568 32.768 14.848 77.44 29.76 133.952 38.656 56.576 8.96 119.04 14.912 184.576 14.912h14.912a346.112 346.112 0 0 1 86.336-110.144z m401.92 50.56a282.112 282.112 0 1 0-400.384 397.568 282.112 282.112 0 0 0 400.32-397.504z m-134.016 270.976c-29.76 29.76-50.56 59.52-65.472 86.272-14.912-26.752-38.72-56.512-65.536-86.272a388.608 388.608 0 0 0-86.336-65.536c26.88-14.848 56.576-38.656 86.4-65.472 29.696-29.76 50.56-59.52 65.472-86.336 14.848 26.816 38.656 56.576 65.472 86.336 29.76 29.76 59.52 50.56 86.336 65.472-29.76 11.904-59.52 35.712-86.336 65.536z" /></svg>