<?xml version="1.0" standalone="no"?><!DOCTYPE svg PUBLIC "-//W3C//DTD SVG 1.1//EN" "http://www.w3.org/Graphics/SVG/1.1/DTD/svg11.dtd"><svg class="icon" width="200px" height="200.00px" viewBox="0 0 1024 1024" version="1.1" xmlns="http://www.w3.org/2000/svg"><path fill="currentColor" d="M747.776 929.28a434.112 434.112 0 0 1-238.144 70.784 434.112 434.112 0 0 1-235.264-68.928 195.072 195.072 0 0 0 65.088-145.792c0-107.904-87.04-195.2-194.432-195.2-24.96 0-48.896 4.672-70.848 13.312a439.424 439.424 0 0 1 250.176-440.704 194.688 194.688 0 0 0 190.08 154.048 194.624 194.624 0 0 0 189.184-149.76 439.424 439.424 0 0 1 241.6 434.688 194.816 194.816 0 0 0-260.608 183.616c0 56.96 24.32 108.288 63.104 144h0.064zM514.56 219.136c53.696 0 97.152-43.648 97.152-97.6 0-53.888-43.52-97.6-97.152-97.6-53.696 0-97.28 43.712-97.28 97.6 0 53.952 43.584 97.6 97.28 97.6zM145.024 882.944c53.696 0 97.28-43.712 97.28-97.6 0-53.952-43.584-97.664-97.28-97.664s-97.152 43.712-97.152 97.664c0 53.888 43.52 97.6 97.152 97.6z m733.952 0c53.696 0 97.152-43.712 97.152-97.6 0-53.952-43.52-97.664-97.152-97.664-53.696 0-97.28 43.712-97.28 97.664 0 53.888 43.584 97.6 97.28 97.6z" /></svg>