<?xml version="1.0" standalone="no"?><!DOCTYPE svg PUBLIC "-//W3C//DTD SVG 1.1//EN" "http://www.w3.org/Graphics/SVG/1.1/DTD/svg11.dtd"><svg class="icon" width="200px" height="200.00px" viewBox="0 0 1024 1024" version="1.1" xmlns="http://www.w3.org/2000/svg"><path fill="currentColor" d="M718.336 419.904a276.16 276.16 0 1 1 0 552.32 276.16 276.16 0 0 1 0-552.32zM550.72 51.776c50.048 0 90.688 39.936 92.032 89.6h119.68a64 64 0 0 1 64 64l0.064 184.192a320.64 320.64 0 0 0-346.624 521.344l-386.368-0.064a64 64 0 0 1-64-64V205.44a64 64 0 0 1 64-64h119.808l0.32-6.464c4.48-46.72 43.776-83.2 91.648-83.2h245.44zM729.6 527.552h-22.464a16.896 16.896 0 0 0-16.896 16.896v11.52c0 9.344-6.08 18.944-13.568 21.248-7.552 2.432-30.912 6.528-37.44 0L631.04 568.96a16.832 16.832 0 0 0-23.872 0l-15.808 15.872a16.768 16.768 0 0 0 0 23.808l8.192 8.256c6.592 6.592 9.024 17.536 5.44 24.448-3.584 6.848-17.344 26.624-26.624 26.624l-11.584-0.064a17.024 17.024 0 0 0-16.896 16.896v22.464c0 9.28 7.552 16.832 16.832 16.832h11.584c9.28 0 18.88 6.144 21.312 13.632 2.432 7.552 6.528 30.912-0.064 37.44l-8.32 8.256a16.768 16.768 0 0 0 0 23.808l15.936 15.936c6.592 6.464 17.28 6.464 23.744 0l8.384-8.32c6.528-6.464 17.536-8.96 24.384-5.376 6.976 3.584 26.56 17.28 26.56 26.624v11.584c0 9.28 7.616 16.832 16.896 16.832h22.464a16.896 16.896 0 0 0 16.896-16.832v-11.584c0-9.28 6.144-18.88 13.632-21.312 7.488-2.304 30.848-6.4 37.44 0.064l8.256 8.32c6.528 6.4 17.28 6.4 23.808 0l15.872-15.936a16.896 16.896 0 0 0 0-23.872l-8.32-8.32c-6.4-6.4-8.896-17.472-5.312-24.32 3.584-6.976 17.28-26.688 26.56-26.688h11.584a16.896 16.896 0 0 0 16.896-16.768V684.8a16.96 16.96 0 0 0-16.896-16.768h-11.648c-9.216 0-18.816-6.208-21.12-13.696-2.496-7.424-6.528-30.784 0-37.44l8.192-8.192a16.896 16.896 0 0 0 0-23.872l-15.872-15.872a16.768 16.768 0 0 0-23.808 0l-8.256 8.32c-6.464 6.4-17.472 8.896-24.448 5.376-6.848-3.584-26.56-17.344-26.56-26.624v-11.584a16.896 16.896 0 0 0-16.832-16.896z m-11.328 95.424a73.088 73.088 0 1 1 0 146.176 73.088 73.088 0 0 1 0-146.176z m-367.808-170.24H151.872a30.72 30.72 0 0 0-5.504 60.8l5.504 0.512h198.592a30.72 30.72 0 0 0 0-61.376z m157.44-155.52H151.872a30.72 30.72 0 0 0-5.504 60.864l5.504 0.512h356.032a30.72 30.72 0 0 0 0-61.376z m-1.92-184.064H350.016a30.72 30.72 0 0 0-5.504 60.864l5.504 0.512h155.968a30.72 30.72 0 1 0 0-61.376z" /></svg>