<?xml version="1.0" standalone="no"?><!DOCTYPE svg PUBLIC "-//W3C//DTD SVG 1.1//EN" "http://www.w3.org/Graphics/SVG/1.1/DTD/svg11.dtd"><svg class="icon" width="200px" height="200.00px" viewBox="0 0 1024 1024" version="1.1" xmlns="http://www.w3.org/2000/svg"><path fill="currentColor" d="M778.88 421.44a106.24 106.24 0 0 1 51.584 193.92l-10.304 6.4-1.28 12.288c-4.48 35.456-12.288 153.344 83.136 192l5.12 1.92h50.24c7.104 0 12.288 5.824 12.288 12.288v115.328c0 12.224-4.48 13.568-10.304 13.568H586.24a12.224 12.224 0 0 1-12.224-12.288V840.32c0-7.04 5.76-12.224 12.224-12.224h56.064l4.48-1.92c98.624-40 87.04-164.352 83.84-188.8l-1.92-12.928-11.008-6.4a106.88 106.88 0 0 1-52.16-90.88c0-58.624 47.68-105.664 105.6-105.664h7.744z m-57.344-342.848c34.176 0 61.888 27.712 61.888 61.888v204.928c-5.12-0.64-10.944-0.64-16.128-0.64-96.64 0-174.592 72.128-174.592 168.128 0 54.144 25.792 105.024 68.288 137.92 1.28 28.352-1.28 83.776-40.576 104.32h-54.784c-37.376 0-67.648 30.336-67.648 67.712v134.016H169.344a61.888 61.888 0 0 1-61.824-61.824V140.48c0-34.176 27.648-61.888 61.824-61.888zM387.84 523.2H247.936a29.824 29.824 0 0 0-28.992 29.696c0 16.704 12.928 29.632 28.992 29.632H387.84a29.44 29.44 0 0 0 28.992-29.632 28.992 28.992 0 0 0-28.992-29.696zM463.168 375.04H247.936a28.864 28.864 0 0 0-28.992 28.992c0 16.064 12.928 28.992 28.992 28.992h215.232a28.864 28.864 0 0 0 28.992-28.992 28.864 28.864 0 0 0-28.992-28.992zM579.2 226.176H247.936a28.864 28.864 0 0 0-28.992 28.992c0 16.128 12.928 28.992 28.992 28.992H579.2a28.864 28.864 0 0 0 28.992-28.992 28.864 28.864 0 0 0-28.992-28.992z" /></svg>