<?xml version="1.0" standalone="no"?><!DOCTYPE svg PUBLIC "-//W3C//DTD SVG 1.1//EN" "http://www.w3.org/Graphics/SVG/1.1/DTD/svg11.dtd"><svg class="icon" width="200px" height="200.00px" viewBox="0 0 1024 1024" version="1.1" xmlns="http://www.w3.org/2000/svg"><path fill="currentColor" d="M693.888 114.368c67.392 0 122.048 54.656 122.048 122.048v184.192a305.344 305.344 0 0 1-244.096 299.136v67.264h60.992a54.016 54.016 0 0 1 61.056 61.12 54.016 54.016 0 0 1-61.056 60.992H388.672a54.016 54.016 0 0 1-60.928-60.992 54.016 54.016 0 0 1 60.928-61.12h61.056v-67.264A305.344 305.344 0 0 1 205.632 420.48V236.416c0-67.392 54.656-122.048 122.112-122.048h366.208-0.064z m-71.488 257.28c-7.168 0-14.08 2.496-19.584 7.104l-1.984 1.792-129.6 129.728a30.528 30.528 0 0 0-1.792 41.088l1.728 2.048a30.464 30.464 0 0 0 41.28 1.792l1.984-1.792 129.536-129.728a30.464 30.464 0 0 0 1.92-41.024l-1.92-2.112a30.528 30.528 0 0 0-21.696-8.768l0.128-0.192zM518.208 249.28c-7.168 0-14.08 2.496-19.584 7.04l-1.92 1.856-86.4 86.464a30.464 30.464 0 0 0-1.856 41.152l1.792 2.048a30.464 30.464 0 0 0 41.28 1.792l1.92-1.792 86.4-86.528a30.464 30.464 0 0 0 1.792-41.088l-1.792-1.984a30.528 30.528 0 0 0-21.696-8.96zM104.32 224.64h79.744a3.84 3.84 0 0 1 3.84 3.84v261.76a151.808 151.808 0 0 1-151.872-151.68v-45.632c0-37.76 30.592-68.288 68.288-68.288z m735.616 0h79.744c37.696 0 68.288 30.592 68.288 68.288v45.568c0 83.84-67.968 151.68-151.744 151.744v-261.76a3.84 3.84 0 0 1 3.712-3.84z" /></svg>