<?xml version="1.0" standalone="no"?><!DOCTYPE svg PUBLIC "-//W3C//DTD SVG 1.1//EN" "http://www.w3.org/Graphics/SVG/1.1/DTD/svg11.dtd"><svg class="icon" width="200px" height="200.00px" viewBox="0 0 1024 1024" version="1.1" xmlns="http://www.w3.org/2000/svg"><path fill="currentColor" d="M89.792 867.328h803.328v89.28H89.792v-89.28z m744-238.016H638.848c-17.536-20.736-30.08-44.224-32.064-70.592-8.384-107.904 107.84-159.488 107.84-291.84C714.624 154.688 629.056 64 491.456 64 353.92 64 268.288 154.624 268.288 266.88c0 132.352 116.224 184 107.904 291.84-2.048 26.368-14.528 49.856-32.128 70.592H149.184a59.392 59.392 0 0 0-59.392 59.392v119.168h803.328V688.64a59.392 59.392 0 0 0-59.328-59.392z" /></svg>