<?xml version="1.0" standalone="no"?><!DOCTYPE svg PUBLIC "-//W3C//DTD SVG 1.1//EN" "http://www.w3.org/Graphics/SVG/1.1/DTD/svg11.dtd"><svg class="icon" width="200px" height="200.00px" viewBox="0 0 1024 1024" version="1.1" xmlns="http://www.w3.org/2000/svg"><path fill="currentColor" d="M884.8 76.16a64 64 0 0 1 64 64v745.344a64 64 0 0 1-64 64H139.392a64 64 0 0 1-64-64V140.16a64 64 0 0 1 64-64h745.408zM510.016 289.92a213.76 213.76 0 1 0 117.76 391.936l98.688 98.752 4.352 3.648c12.288 8.448 29.44 7.232 40.32-3.648l15.808-15.808 3.648-4.352a31.68 31.68 0 0 0-3.648-40.32L688.192 621.44l7.168-11.52a213.76 213.76 0 0 0-185.28-320z m0 85.568c70.848 0 128.256 57.408 128.256 128.192 0 19.84-4.864 38.272-12.8 55.04-12.672 26.432-33.984 47.744-60.48 60.416-16.64 7.936-35.2 12.8-54.976 12.8a128.256 128.256 0 1 1 0-256.448z" /></svg>