<?xml version="1.0" standalone="no"?><!DOCTYPE svg PUBLIC "-//W3C//DTD SVG 1.1//EN" "http://www.w3.org/Graphics/SVG/1.1/DTD/svg11.dtd"><svg class="icon" width="200px" height="200.00px" viewBox="0 0 1024 1024" version="1.1" xmlns="http://www.w3.org/2000/svg"><path fill="currentColor" d="M953.6 72.96s-149.12 56.32-234.24 30.08A609.92 609.92 0 0 1 512 0a609.92 609.92 0 0 1-207.36 103.04C219.52 128 70.4 72.96 70.4 72.96a3318.4 3318.4 0 0 0 10.88 542.08C112.64 847.36 512 1024 512 1024s400-176 430.72-408.32a3318.4 3318.4 0 0 0 10.88-542.72z m-448 592a33.28 33.28 0 0 1-47.36 0l-50.56-49.92L313.6 520.96a33.28 33.28 0 0 1 0-46.72L340.48 448a33.28 33.28 0 0 1 47.36 0l94.08 93.44 214.4-213.12a33.28 33.28 0 0 1 47.36 0l26.88 26.88c12.8 12.928 12.8 33.792 0 46.72L505.6 664.96z" /></svg>