<?xml version="1.0" standalone="no"?><!DOCTYPE svg PUBLIC "-//W3C//DTD SVG 1.1//EN" "http://www.w3.org/Graphics/SVG/1.1/DTD/svg11.dtd"><svg class="icon" width="200px" height="200.00px" viewBox="0 0 1024 1024" version="1.1" xmlns="http://www.w3.org/2000/svg"><path fill="currentColor" d="M724.096 142.08c20.224 0 35.52 4.928 45.952 15.36 12.608 12.608 16.192 31.488 17.344 45.504l0.448 6.592v624c0 38.528 10.88 70.72 29.632 93.312l6.528 7.168-543.104 0.64h-12.224c-68.288 0-113.28-52.864-117.376-119.808l-0.32-10.176V376.256h484.224a26.624 26.624 0 0 0 25.792-21.12l0.576-5.248V235.264c0-61.888 20.8-93.184 62.528-93.184z m221.248 522.88a17.408 17.408 0 0 1 17.28 13.12l0.512 4.608v155.072c0 3.712-0.64 9.216-1.28 15.36l-0.256 2.112-0.32 2.176v1.216a101.312 101.312 0 0 1-13.44 32.448c-9.216 11.648-23.36 20.864-46.08 20.864-51.84 0-60.352-48.896-61.184-74.048V664.96h104.768z m-297.92-177.536a32 32 0 0 0-45.056 4.096l-157.888 189.312-97.024-85.504-4.672-3.392a32 32 0 0 0-37.696 51.392L426.88 750.72l4.8 3.456a32 32 0 0 0 40.96-6.976L651.52 532.48l3.328-4.736a32 32 0 0 0-7.424-40.32z m46.016-398.08c6.4 0 12.736 0.64 19.008 1.92-61.76 5.184-99.136 53.568-102.72 131.968l-0.256 12.672v88.256H78.656c-8.96 0-15.616-5.44-17.28-10.88L60.8 310.72V177.024c0-45.568 38.016-83.008 85.952-87.232l9.088-0.384h537.536z" /></svg>