<?xml version="1.0" standalone="no"?><!DOCTYPE svg PUBLIC "-//W3C//DTD SVG 1.1//EN" "http://www.w3.org/Graphics/SVG/1.1/DTD/svg11.dtd"><svg class="icon" width="200px" height="200.00px" viewBox="0 0 1024 1024" version="1.1" xmlns="http://www.w3.org/2000/svg"><path fill="currentColor" d="M512 40.32c260.48 0 471.68 211.2 471.68 471.68a471.68 471.68 0 0 1-860.096 267.712h88.576c1.92 2.176 4.416 3.968 7.296 4.992 109.12 36.224 240.64 76.224 322.304 76.224 9.6 0 18.368-0.512 26.368-1.664 52.032-8.64 222.72-119.168 256-147.584 24.512-21.12 32.64-52.928 20.8-81.472-12.16-29.248-49.28-29.12-69.76-24.128l-61.824 17.344a84.48 84.48 0 0 1-26.048 53.952c-40.704 38.72-119.552 46.592-176.64 46.592-33.152 0-58.88-2.752-65.536-3.456a20.288 20.288 0 0 1-17.792-22.336c1.28-11.008 11.136-19.2 22.336-17.792 43.84 4.992 166.912 8.704 209.792-32.256a43.392 43.392 0 0 0 13.888-27.584c-12.16-16.64-32.64-23.68-48.384-23.872H47.872A471.68 471.68 0 0 1 512 40.32z m-57.152 153.088H340.608l89.856 158.848H352.832v54.72h109.44v31.232h-109.44v54.72h109.44v67.648H563.84V492.928h106.752v-54.72H563.84v-31.232h106.752v-54.72H596.032l87.36-158.848h-114.56L512.128 318.08l-57.344-124.8z" /></svg>