<?xml version="1.0" standalone="no"?><!DOCTYPE svg PUBLIC "-//W3C//DTD SVG 1.1//EN" "http://www.w3.org/Graphics/SVG/1.1/DTD/svg11.dtd"><svg class="icon" width="200px" height="200.00px" viewBox="0 0 1024 1024" version="1.1" xmlns="http://www.w3.org/2000/svg"><path fill="currentColor" d="M845.568 64.704H178.432a55.232 55.232 0 0 0-55.616 56.768v781.056a55.616 55.616 0 0 0 56 55.616h666.752a55.232 55.232 0 0 0 55.616-55.616V121.472a55.232 55.232 0 0 0-55.616-56.768z m-594.752 192h493.12v64H250.88v-64z m0 159.616h384v64h-384v-64z m516.288 233.152L566.656 849.92a22.656 22.656 0 0 1-30.784 0l-27.584-29.44-78.336-77.376a21.76 21.76 0 0 1 0-30.72l15.36-14.528a21.76 21.76 0 0 1 30.848 0l61.504 61.568a21.76 21.76 0 0 0 30.72 0l154.368-153.856a21.76 21.76 0 0 1 30.72 0l15.424 15.36a21.76 21.76 0 0 1 0 31.68l-1.792-3.2z" /></svg>