<?xml version="1.0" standalone="no"?><!DOCTYPE svg PUBLIC "-//W3C//DTD SVG 1.1//EN" "http://www.w3.org/Graphics/SVG/1.1/DTD/svg11.dtd"><svg class="icon" width="200px" height="200.00px" viewBox="0 0 1024 1024" version="1.1" xmlns="http://www.w3.org/2000/svg"><path fill="currentColor" d="M442.688 542.208A241.984 241.984 0 1 1 688 300.16a243.968 243.968 0 0 1-245.376 242.048h0.064z m162.944 31.232a256.128 256.128 0 0 0-4.224 392.32H180.48a123.136 123.136 0 0 1-122.24-132.928 167.68 167.68 0 0 1 14.208-61.12 412.672 412.672 0 0 1 372.544-229.312c55.04 0.192 109.504 10.688 160.64 31.04h0.064zM756.096 965.76a195.52 195.52 0 1 0 0-391.04 195.52 195.52 0 0 0 0 391.04z m84.992-278.272h-159.616a18.048 18.048 0 0 0-17.664 18.304v109.632a18.048 18.048 0 0 0 17.664 18.304h62.08l-17.728 27.392v9.152h70.912v-9.152l-17.792-27.392h62.016a18.048 18.048 0 0 0 17.792-18.304v-109.632a18.048 18.048 0 0 0-17.664-18.304z" /></svg>