<?xml version="1.0" standalone="no"?><!DOCTYPE svg PUBLIC "-//W3C//DTD SVG 1.1//EN" "http://www.w3.org/Graphics/SVG/1.1/DTD/svg11.dtd"><svg class="icon" width="200px" height="200.00px" viewBox="0 0 1024 1024" version="1.1" xmlns="http://www.w3.org/2000/svg"><path fill="currentColor" d="M596.928 112.128a172.416 172.416 0 0 1 172.416 172.416v39.68L876.8 237.12a57.472 57.472 0 0 1 93.696 44.672v407.808a57.472 57.472 0 0 1-93.696 44.672l-107.52-87.04v39.68a172.416 172.416 0 0 1-172.352 172.416H223.36a172.416 172.416 0 0 1-172.416-172.416V284.544A172.416 172.416 0 0 1 223.36 112.128h373.568z m6.272 434.048l-121.984 21.696 33.664 33.6L432.64 666.24 350.08 590.912 347.2 588.8a19.456 19.456 0 0 0-22.208 1.024l-112.384 86.528-2.56 2.368a19.456 19.456 0 0 0-1.024 24.96l2.368 2.56c6.848 6.144 17.344 6.784 24.96 0.96l99.456-76.544 82.752 75.52 2.752 2.112a19.456 19.456 0 0 0 22.4-1.28l98.88-77.76 38.912 38.912 21.632-121.984zM597.312 216.96h-50.88a57.472 57.472 0 0 0-57.472 57.472v57.472c0 31.744 25.728 57.472 57.472 57.472h50.88a57.472 57.472 0 0 0 57.472-57.472v-57.472a57.472 57.472 0 0 0-57.472-57.472z" /></svg>