<?xml version="1.0" standalone="no"?><!DOCTYPE svg PUBLIC "-//W3C//DTD SVG 1.1//EN" "http://www.w3.org/Graphics/SVG/1.1/DTD/svg11.dtd"><svg class="icon" width="200px" height="200.00px" viewBox="0 0 1024 1024" version="1.1" xmlns="http://www.w3.org/2000/svg"><path fill="currentColor" d="M759.488 561.472a181.248 181.248 0 0 1 157.824 270.144l-6.72 11.008 83.712 83.712a26.88 26.88 0 0 1 3.456 33.728l-3.456 4.16-13.44 13.44a26.88 26.88 0 0 1-33.664 3.392l-4.16-3.456-83.712-83.712a181.248 181.248 0 1 1-99.84-332.416z m0 72.512a108.8 108.8 0 0 0 0 217.6c16.768 0 32.448-4.16 46.592-10.88 19.2-9.216 35.328-23.808 46.272-41.984l4.992-9.344c6.784-14.144 10.88-29.824 10.88-46.592a108.8 108.8 0 0 0-108.8-108.8z m13.184-569.216c48.832 0 89.6 40.768 91.584 91.648v366.592a255.104 255.104 0 0 0-350.272 232.128c0 12.16 0 26.496 2.048 38.72h-380.8a91.264 91.264 0 0 1-91.648-91.648V156.416c0-50.88 40.768-91.648 91.648-91.648zM348.48 227.008a32 32 0 0 0-32 32v340.608a32 32 0 0 0 48.96 27.136l272.192-170.304a32 32 0 0 0 0-54.272L365.44 231.872a32 32 0 0 0-16.96-4.864z" /></svg>