<?xml version="1.0" standalone="no"?><!DOCTYPE svg PUBLIC "-//W3C//DTD SVG 1.1//EN" "http://www.w3.org/Graphics/SVG/1.1/DTD/svg11.dtd"><svg class="icon" width="200px" height="200.00px" viewBox="0 0 1024 1024" version="1.1" xmlns="http://www.w3.org/2000/svg"><path fill="currentColor" d="M463.36 925.504a10799.808 10799.808 0 0 0-194.56-166.4c-34.432-28.288-68.992-56.32-103.552-84.032-6.656 0.576-13.312 0.896-19.968 0.896-5.44 0.64-11.2 0.896-17.28 0.896H112.64a55.936 55.936 0 0 1-40-14.592 46.528 46.528 0 0 1-15.424-35.008V404.224h0.896l-0.896-0.832c0-16.512 5.248-30.08 15.872-40.704a53.568 53.568 0 0 1 39.552-16h51.84c55.68-45.952 106.24-87.296 151.68-123.84 19.456-16 38.528-31.424 57.28-46.464 18.816-15.04 35.776-28.8 50.88-41.152 15.168-12.416 27.904-22.72 38.208-30.976 10.24-8.256 16.64-13.312 19.072-15.04 18.176-12.992 32.896-18.88 44.096-17.728a34.752 34.752 0 0 1 26.368 16c6.336 9.344 10.752 20.864 13.184 34.432 2.368 13.632 3.584 25.984 3.584 37.184v716.8c0 11.264-2.048 23.232-6.336 35.904a65.472 65.472 0 0 1-19.52 30.08 43.52 43.52 0 0 1-33.216 9.28c-13.312-1.152-28.8-9.728-46.336-25.6z m293.568-525.632c12.736 17.088 22.848 34.304 30.4 51.712 7.616 17.408 11.392 38.528 11.392 63.36 0 23.552-3.904 44.8-11.84 63.68a216.32 216.32 0 0 1-29.952 51.328 124.8 124.8 0 0 1-15.424 17.28 29.632 29.632 0 0 1-20.928 7.488 37.376 37.376 0 0 1-27.712-11.52 38.912 38.912 0 0 1-8.64-41.6h-0.896c3.008-6.464 6.656-12.672 10.88-18.56a418.56 418.56 0 0 0 12.288-18.176 88.512 88.512 0 0 0 14.08-49.984c0-10.624-1.344-19.904-4.096-27.904a111.232 111.232 0 0 0-9.984-21.632 301.568 301.568 0 0 0-12.288-18.56 80 80 0 0 1-9.984-18.624 34.56 34.56 0 0 1-2.688-14.144c0-10.624 3.712-19.776 11.328-27.456a37.376 37.376 0 0 1 27.712-11.52c8.512 0 15.424 2.56 20.928 7.552 5.44 4.992 10.56 10.752 15.424 17.28z m50.88 397.312a41.792 41.792 0 0 1-25.408 8 43.456 43.456 0 0 1-31.36-12.864 41.024 41.024 0 0 1-13.184-30.528 41.472 41.472 0 0 1 19.072-35.392l0.896-0.896c16.96-11.2 32.768-24.512 47.296-39.808 14.528-15.36 27.264-32 38.144-49.984 10.88-18.048 19.392-37.184 25.472-57.536a221.44 221.44 0 0 0 9.088-63.296c0-44.224-11.52-84.672-34.56-121.216a304.384 304.384 0 0 0-86.336-90.304 41.152 41.152 0 0 1-19.072-35.392c0-11.84 4.352-21.952 13.184-30.528 8.768-8.576 19.2-12.8 31.36-12.8a41.6 41.6 0 0 1 27.2 9.664c22.464 15.36 43.392 33.28 62.72 53.568 19.456 20.352 36.096 42.496 49.984 66.368a339.2 339.2 0 0 1 32.768 76.608c7.808 27.072 11.776 55.168 11.776 84.032 0 29.504-3.968 57.856-11.776 84.992a335.36 335.36 0 0 1-33.152 76.928 367.168 367.168 0 0 1-50.432 66.88 374.4 374.4 0 0 1-63.68 53.504z" /></svg>