<?xml version="1.0" standalone="no"?><!DOCTYPE svg PUBLIC "-//W3C//DTD SVG 1.1//EN" "http://www.w3.org/Graphics/SVG/1.1/DTD/svg11.dtd"><svg class="icon" width="200px" height="200.00px" viewBox="0 0 1024 1024" version="1.1" xmlns="http://www.w3.org/2000/svg"><path fill="currentColor" d="M903.36 179.84c45.824 0 82.88 37.12 82.752 82.752v496.832c0 45.696-37.056 82.752-82.752 82.752H130.624c-45.696 0-82.752-37.12-82.752-82.752V262.592c0-45.632 37.12-82.752 82.752-82.752z m-594.56 151.808a89.664 89.664 0 0 0-36.672 171.584 154.176 154.176 0 0 0-114.88 121.856 23.744 23.744 0 0 0 23.424 27.904H437.12c14.72 0 26.24-13.44 23.232-27.904a154.176 154.176 0 0 0-114.88-121.856 89.792 89.792 0 0 0-36.608-171.52z m525.632 234.56H586.048a41.408 41.408 0 0 0 0 82.816h248.384a41.408 41.408 0 0 0 0-82.816z m55.04-235.776l-134.4 28.8 32.512 32.448-54.784 43.072-52.672-44.672-4.608-3.2a32 32 0 0 0-36.16 2.752L551.488 460.544l-4.16 3.968a32 32 0 0 0-0.64 40.96l3.968 4.224a32 32 0 0 0 40.96 0.64l67.264-54.336 52.48 44.544 4.608 3.2a32 32 0 0 0 35.904-2.496l81.28-64 27.52 27.52 28.8-134.336z" /></svg>