<?xml version="1.0" standalone="no"?><!DOCTYPE svg PUBLIC "-//W3C//DTD SVG 1.1//EN" "http://www.w3.org/Graphics/SVG/1.1/DTD/svg11.dtd"><svg class="icon" width="200px" height="200.00px" viewBox="0 0 1024 1024" version="1.1" xmlns="http://www.w3.org/2000/svg"><path fill="currentColor" d="M884.224 64c61.824 0 112.384 50.56 112.384 112.384v531.456c0 61.888-50.56 112.448-112.384 112.448H139.776A112.768 112.768 0 0 1 27.392 707.84V176.384c0-61.888 50.56-112.448 112.384-112.448h744.448zM418.752 609.984h62.464L332.352 246.4h-51.84L140.928 610.048h59.648l39.936-101.888 139.136 0.192 39.168 101.76h-0.064zM851.2 499.712c6.784-23.872 10.048-48.64 9.6-73.472a244.48 244.48 0 0 0-14.272-86.464 148.672 148.672 0 0 0-43.008-62.208 122.624 122.624 0 0 0-53.248-25.984c-14.912-3.456-36.48-5.12-64.768-5.12H560.32v363.52h131.072c22.08 0 41.536-2.048 58.432-6.144 17.024-4.224 31.552-10.24 43.52-18.24 11.968-8 22.976-19.008 33.088-33.024 11.136-16.128 19.52-34.048 24.832-52.928z m-33.664 391.04H192.448a33.664 33.664 0 0 0-33.6 33.664v1.92c0 18.56 15.104 33.728 33.664 33.728h624.96a33.792 33.792 0 0 0 33.664-33.664v-2.048a33.728 33.728 0 0 0-33.664-33.6h0.128z m-510.72-576.704c-4.736 23.36-4.224 17.088-12.608 40.128L254.272 460.8h107.136l-37.888-100.928c-11.584-30.592-11.008-26.24-16.64-45.952z m436.352-4.096c-11.584-4.48-30.272-6.72-56-6.72H618.496v249.92h69.824c21.568 0 38.464-1.984 50.816-5.952 12.288-4.032 22.016-9.664 29.376-17.024 10.24-10.24 18.24-24.064 23.936-41.344 5.76-17.28 8.704-38.4 8.704-63.04 0-34.24-5.568-60.544-16.832-78.912-11.392-18.368-24.96-30.72-41.088-36.928z" /></svg>