<?xml version="1.0" standalone="no"?><!DOCTYPE svg PUBLIC "-//W3C//DTD SVG 1.1//EN" "http://www.w3.org/Graphics/SVG/1.1/DTD/svg11.dtd"><svg class="icon" width="200px" height="200.00px" viewBox="0 0 1024 1024" version="1.1" xmlns="http://www.w3.org/2000/svg"><path fill="currentColor" d="M459.904 43.968v270.016c0 52.736 46.592 95.424 104.192 95.424h330.048v507.968c0 26.304-23.36 47.68-52.096 47.68H181.952c-28.8 0-52.096-21.312-52.096-47.68V91.584c0-26.24 23.36-47.616 52.096-47.616h277.952z m92.16 622.464H317.248a32 32 0 1 0 0 64h234.816a32 32 0 1 0 0-64z m109.12-161.92H317.248a32 32 0 1 0 0 64h343.936a32 32 0 1 0 0-64zM512 44.48l379.584 316.544-320.256-7.872A60.8 60.8 0 0 1 512 292.48V44.48z" /></svg>