<?xml version="1.0" standalone="no"?><!DOCTYPE svg PUBLIC "-//W3C//DTD SVG 1.1//EN" "http://www.w3.org/Graphics/SVG/1.1/DTD/svg11.dtd"><svg class="icon" width="200px" height="200.00px" viewBox="0 0 1024 1024" version="1.1" xmlns="http://www.w3.org/2000/svg"><path fill="currentColor" d="M86.912 480.512A5847.232 5847.232 0 0 1 239.104 316.16c6.08-36.544 24.32-152.192 42.624-225.28 6.08-24.32 18.24-48.64 42.624-60.864 24.32-6.08 48.64-6.08 73.024 6.08C464.32 66.56 573.952 115.2 604.352 133.504c36.544-6.08 158.336-18.24 231.36-24.32 24.32 0 48.704 6.08 60.864 24.32 18.304 12.16 24.32 36.48 24.32 60.864-12.16 73.088-24.32 194.816-30.4 231.36 18.304 30.464 67.008 146.112 97.408 213.12 12.16 30.4 6.08 60.8 0 72.96-12.16 18.304-30.4 36.608-54.784 36.608-73.024 12.16-194.816 36.48-231.36 42.56-24.32 24.32-115.648 109.632-164.352 158.336-24.32 18.24-42.624 24.32-54.784 24.32h-12.16c-18.304 0-36.544-12.16-54.848-42.624-36.48-66.944-97.408-176.512-109.568-206.976-30.4-18.24-133.952-73.024-200.896-109.568a107.968 107.968 0 0 1-48.704-60.864c6.08-18.304 6.08-42.624 30.464-73.088z m578.368 79.168c6.08 6.08 18.24 12.16 24.32 12.16 6.08 0 18.24-6.08 24.32-12.16l24.384-24.32c12.16-12.224 12.16-36.608 0-48.768-12.16-12.16-36.48-12.16-48.704 0l-24.32 24.32c-12.16 18.304-12.16 36.544 0 48.768zM543.488 291.776c-12.16-12.16-36.48-12.16-48.704 0l-24.32 24.32c-12.16 12.16-12.16 36.544 0 48.768 6.08 6.08 12.16 6.08 24.32 6.08 6.08 0 18.24 0 24.32-6.08l24.384-24.32c12.16-12.224 12.16-36.608 0-48.768zM446.08 565.76c24.32 24.384 54.784 36.608 85.248 36.608h24.32c18.304-12.16 30.464-30.464 24.32-48.704-6.016-12.16-24.32-24.32-42.56-24.32 0 0-24.32 6.016-42.624-12.224-18.24-18.304-12.16-42.624-12.16-42.624 6.08-18.24-6.08-36.48-24.32-42.624-18.304-6.08-36.544 6.08-42.688 24.32C409.6 480.576 409.6 529.28 446.08 565.76zM38.208 937.152l164.352-164.352c12.16-12.16 36.48-12.16 48.704 0 12.16 12.16 12.16 36.48 0 48.704l-164.352 164.352c-6.08 6.144-18.304 12.16-24.32 12.16-6.144 0-18.304-6.016-24.384-12.16-12.16-12.16-12.16-30.4 0-48.64z" /></svg>