<?xml version="1.0" standalone="no"?><!DOCTYPE svg PUBLIC "-//W3C//DTD SVG 1.1//EN" "http://www.w3.org/Graphics/SVG/1.1/DTD/svg11.dtd"><svg class="icon" width="200px" height="200.00px" viewBox="0 0 1024 1024" version="1.1" xmlns="http://www.w3.org/2000/svg"><path fill="currentColor" d="M764.8 497.6a219.584 219.584 0 1 1 0 439.232 219.584 219.584 0 0 1 0-439.232z m96.96 339.968h-194.048a16.192 16.192 0 0 0-3.712 31.936l3.712 0.448h194.048a16.192 16.192 0 0 0 0-32.384z m86.144-531.712v203.328a275.968 275.968 0 0 0-412.8 360.64H89.152a64 64 0 0 1-64-64V305.92h922.688zM764.8 541.12c-41.728 0-75.84 34.112-75.84 75.84 0 24.96 11.968 46.848 30.592 61.056l7.296 4.928v17.408l-0.32 2.56a6.784 6.784 0 0 1-2.56 3.712l-2.176 0.96-2.56 0.384-3.968 0.512a15.296 15.296 0 0 0-10.624 10.624l-0.512 4.032h-30.336l-6.208 0.384a45.696 45.696 0 0 0-39.296 45.12c0 22.912 17.152 42.048 39.296 45.12l6.208 0.384h182.016l6.144-0.384a45.696 45.696 0 0 0 39.36-45.12 45.696 45.696 0 0 0-39.36-45.12l-6.144-0.384h-30.336l-0.576-4.032a15.296 15.296 0 0 0-6.976-9.088l-3.584-1.536-4.032-0.512-2.56-0.384a6.784 6.784 0 0 1-4.672-4.672l-0.384-2.56v-17.408l7.296-4.736a76.16 76.16 0 0 0-45.184-137.088zM257.536 377.6a103.68 103.68 0 0 0-49.536 194.752 127.808 127.808 0 0 0-92.928 123.072v85.76H400v-85.76a128 128 0 0 0-92.992-123.136A103.68 103.68 0 0 0 257.536 377.6z m626.368-282.176a64 64 0 0 1 64 64v80.448H25.216V159.488a64 64 0 0 1 64-64h794.688z" /></svg>