<?xml version="1.0" standalone="no"?><!DOCTYPE svg PUBLIC "-//W3C//DTD SVG 1.1//EN" "http://www.w3.org/Graphics/SVG/1.1/DTD/svg11.dtd"><svg class="icon" width="200px" height="200.00px" viewBox="0 0 1024 1024" version="1.1" xmlns="http://www.w3.org/2000/svg"><path fill="currentColor" d="M95.922057 564.814952c-20.752813-20.433539-28.287681-45.656189-20.625103-69.282469 7.726432-23.62628 28.67081-39.462273 57.341619-43.8044l200.440249-29.245503c9.578222-1.532515 25.541924-13.154091 29.820196-21.966054L452.615027 217.444785c12.770962-26.180472 34.481597-41.250207 59.384973-41.250207s46.550157 15.069735 59.384973 41.250207l89.652154 183.071741c4.342127 8.748109 20.17812 20.433539 29.820196 21.902199l200.440249 29.309358c28.734665 4.214417 49.615187 20.114265 57.34162 43.8044 7.726432 23.62628 0.255419 48.912785-20.561249 69.346324l-145.014274 142.396226c-7.024029 7.024029-13.154091 25.988908-11.493866 35.758694l34.226178 201.206507c4.852966 28.926229-3.831289 53.76575-24.137118 68.452356a59.257264 59.257264 0 0 1-35.247855 11.238447c-11.940849 0-24.456392-3.256595-36.844225-9.833641l-179.240452-94.952103c-8.620399-4.469837-28.159971-4.469837-36.716516 0l-179.176598 94.952103c-25.669634 13.601075-51.977815 13.090236-72.155935-1.468661-20.241975-14.622752-28.990084-39.462273-24.073263-68.452356l34.226178-201.142652c1.660225-9.769786-4.469837-28.734665-11.493866-35.758694L95.858202 564.814952h0.063855zM799.985194 337.427973a44.442948 44.442948 0 0 1-44.442948-44.442948V58.637872a44.442948 44.442948 0 0 1 88.885896 0V292.793461a44.379093 44.379093 0 0 1-44.442948 44.442948M622.277257 203.97142a44.442948 44.442948 0 0 1-44.442948-44.442948V58.765582a44.442948 44.442948 0 1 1 88.885896 0v100.8906a44.442948 44.442948 0 0 1-44.442948 44.442948m-222.08703 0a44.442948 44.442948 0 0 1-44.442947-44.379093V58.701727a44.442948 44.442948 0 1 1 88.822041 0v100.8906a44.442948 44.442948 0 0 1-44.379094 44.506803M222.482291 325.231704a44.442948 44.442948 0 0 1-44.442948-44.379093V46.697023a44.442948 44.442948 0 1 1 88.822041 0v234.155588a44.442948 44.442948 0 0 1-44.379093 44.379093" /></svg>