<?xml version="1.0" standalone="no"?><!DOCTYPE svg PUBLIC "-//W3C//DTD SVG 1.1//EN" "http://www.w3.org/Graphics/SVG/1.1/DTD/svg11.dtd"><svg class="icon" width="200px" height="200.00px" viewBox="0 0 1024 1024" version="1.1" xmlns="http://www.w3.org/2000/svg"><path fill="currentColor" d="M912 52.736H176v122.24H86.208c-16.832 0-33.088 12.032-33.088 28.928v60.864c0 16.832 16.256 32.512 33.088 32.512h89.728v61.44H86.208c-16.832 0-33.088 12.032-33.088 28.928v61.44c0 16.832 16.256 32.512 33.088 32.512h89.728v60.224H86.208c-16.832 0-33.088 12.032-33.088 28.928v61.44c0 16.832 16.256 32.512 33.088 32.512h89.728v61.44H86.208c-16.832 0-33.088 12.032-33.088 28.928v61.44c0 16.832 16.256 32.512 33.088 32.512h89.728v122.24h736c33.728 0 58.944-29.504 58.944-63.168V112.96c0.064-34.944-25.216-60.224-58.88-60.224zM359.04 908.544H236.8v-61.44h33.152c16.832 0 28.224-15.68 28.224-32.512v-61.44c0-16.832-11.392-28.928-28.224-28.928H236.8v-61.44h33.152c16.832 0 28.224-15.68 28.224-32.512v-59.648c0-16.832-11.392-28.928-28.224-28.928H236.8v-61.376h33.152c16.832 0 28.224-15.68 28.224-32.512v-60.8c0-16.896-11.392-28.992-28.224-28.992H236.8v-60.8h33.152c16.832 0 28.224-15.68 28.224-32.512v-61.44c0-16.832-11.392-28.928-28.224-28.928H236.8v-60.864h122.304L359.04 908.544z" /></svg>