<?xml version="1.0" standalone="no"?><!DOCTYPE svg PUBLIC "-//W3C//DTD SVG 1.1//EN" "http://www.w3.org/Graphics/SVG/1.1/DTD/svg11.dtd"><svg class="icon" width="200px" height="200.00px" viewBox="0 0 1024 1024" version="1.1" xmlns="http://www.w3.org/2000/svg"><path fill="currentColor" d="M643.968 503.552h32.576a32.96 32.96 0 0 0 23.296-56.32l-164.48-164.48a32.96 32.96 0 0 0-46.72 0L324.16 447.36a32.96 32.96 0 0 0 23.296 56.32h32.64v107.264c0 18.24 14.72 33.024 32.96 33.024h197.888c18.24 0 33.024-14.784 33.024-33.024V503.552zM512 973.824A461.824 461.824 0 1 1 512 50.176a461.824 461.824 0 0 1 0 923.648z m-98.944-263.872a32.96 32.96 0 1 0 0 65.92h197.888a32.96 32.96 0 0 0 0-65.92H413.056z" /></svg>