<?xml version="1.0" standalone="no"?><!DOCTYPE svg PUBLIC "-//W3C//DTD SVG 1.1//EN" "http://www.w3.org/Graphics/SVG/1.1/DTD/svg11.dtd"><svg class="icon" width="200px" height="200.00px" viewBox="0 0 1024 1024" version="1.1" xmlns="http://www.w3.org/2000/svg"><path fill="currentColor" d="M900.224 67.456H123.776a87.68 87.68 0 0 0-85.952 88.96v533.376a87.68 87.68 0 0 0 85.952 88.96h302.272L339.52 912v44.48h344.96v-44.48l-86.528-133.376h301.696a87.68 87.68 0 0 0 86.528-88.896V156.352a87.68 87.68 0 0 0-85.952-88.896z m0 533.44H123.776V156.352h776.448V600.96zM484.224 202.112a164.032 164.032 0 0 1 136.768 254.4l75.712 75.712a24.32 24.32 0 0 1 0 34.304l-12.096 12.16a24.32 24.32 0 0 1-34.304 0L574.592 502.848a164.032 164.032 0 1 1-90.368-300.8z m0 65.6a98.432 98.432 0 0 0 0 196.864c15.168 0 29.376-3.712 42.24-9.856 20.288-9.664 36.672-26.048 46.336-46.4 6.144-12.8 9.856-27.008 9.856-42.176 0-54.4-44.096-98.432-98.432-98.432z" /></svg>