<?xml version="1.0" standalone="no"?><!DOCTYPE svg PUBLIC "-//W3C//DTD SVG 1.1//EN" "http://www.w3.org/Graphics/SVG/1.1/DTD/svg11.dtd"><svg class="icon" width="200px" height="200.00px" viewBox="0 0 1024 1024" version="1.1" xmlns="http://www.w3.org/2000/svg"><path fill="currentColor" d="M747.328 634.432c46.848 0 91.968 17.344 128.448 53.76a176 176 0 0 1 53.76 126.784c0 48.64-20.8 93.824-53.76 126.784a176 176 0 0 1-126.72 53.824 177.024 177.024 0 0 1-128.512-53.824 176 176 0 0 1-53.76-126.72c0-48.64 19.072-93.824 53.76-126.784a175.936 175.936 0 0 1 126.72-53.824zM632.64 28.352c22.656 0 45.12 10.496 60.8 24.32l158.08 159.808c12.096 13.952 22.528 43.456 24.256 60.8v361.216c-39.936-31.36-72.96-52.16-128.448-52.16-130.24 0-236.16 104.192-236.16 230.912 0 59.072 22.528 97.28 59.008 135.488H165.632a71.552 71.552 0 0 1-71.232-71.232V101.312A74.24 74.24 0 0 1 165.632 28.352z m140.736 687.744c-8.64-13.888-29.504-13.888-36.48 0l-24.32 45.184-52.096 6.912c-8.64 0-15.616 6.976-19.072 13.888-1.728 8.64 0 15.616 6.912 19.072l41.728 36.48-10.432 53.824c0 8.64 1.728 13.888 6.912 19.072 3.52 3.456 15.68 6.976 22.592 3.456l45.184-22.528 45.12 24.32c1.792 1.92 4.288 3.2 6.976 3.456 5.184 0 5.184-3.52 8.64-3.52 6.976-8.64 6.976-12.16 6.976-19.072l-3.52-52.096 38.208-36.48c3.52-5.248 3.52-19.136 12.224-26.048-8.64-6.976-12.16-10.432-19.072-13.888l-52.16-6.976z m-279.68-166.656H256c-13.888 0-24.32 15.616-24.32 38.144s12.16 38.144 24.32 38.144h237.824c13.888 0 26.048-17.28 24.32-38.144 0-22.528-12.16-38.144-24.32-38.144z m206.72-163.2H268.032a36.48 36.48 0 0 0-38.208 38.08c0 22.528 15.616 38.208 38.208 38.208h432.384c22.528 0 38.144-17.344 38.144-38.208a36.416 36.416 0 0 0-38.144-38.144z m0-163.264H268.032a36.48 36.48 0 0 0-38.208 38.144c0 22.528 15.616 38.144 38.208 38.144h432.384c22.528 0 38.144-17.28 38.144-38.144a36.416 36.416 0 0 0-38.144-38.144z" /></svg>