<?xml version="1.0" standalone="no"?><!DOCTYPE svg PUBLIC "-//W3C//DTD SVG 1.1//EN" "http://www.w3.org/Graphics/SVG/1.1/DTD/svg11.dtd"><svg class="icon" width="200px" height="200.00px" viewBox="0 0 1024 1024" version="1.1" xmlns="http://www.w3.org/2000/svg"><path fill="currentColor" d="M480.768 151.04h59.008c3.456 0 10.432-3.456 10.432-10.368V43.456c0-3.456-3.52-10.368-10.432-10.368h-59.008c-3.456 0-6.976 3.456-10.432 6.912v100.672c3.456 6.912 6.976 10.368 10.432 10.368zM196.16 286.4h6.976l41.6-41.6c3.52-3.52 3.52-3.52 3.52-6.976s0-3.456-3.52-6.912L175.36 161.472c0-3.456-3.456-3.456-6.976-3.456 0 0-3.456 0-3.456 3.456l-45.12 41.6v7.04c0 3.392 0 3.392 3.456 6.912l69.44 69.376h3.456z m704.576-83.264l-41.664-41.664c0-3.456-3.456-3.456-6.976-3.456-3.456 0-3.456 0-6.912 3.456l-69.44 69.44c-3.456 3.456-3.456 3.456-3.456 6.912s0 3.456 3.456 6.976l41.664 41.6h6.976c3.456 0 3.456 0 6.912-3.456l69.44-69.44c3.456-3.456 3.456-3.456 3.456-6.912l-3.456-3.456zM147.584 890.24h728.832v69.44H147.584V890.24z m34.688-100.608c0 17.28 13.888 31.232 31.232 31.232h121.472V557.12h65.92v263.808h409.6a31.104 31.104 0 0 0 31.232-31.232V546.752A329.6 329.6 0 0 0 512 216.96c-180.48 0-329.728 149.248-329.728 329.728v242.944z" /></svg>