<?xml version="1.0" standalone="no"?><!DOCTYPE svg PUBLIC "-//W3C//DTD SVG 1.1//EN" "http://www.w3.org/Graphics/SVG/1.1/DTD/svg11.dtd"><svg class="icon" width="200px" height="200.00px" viewBox="0 0 1024 1024" version="1.1" xmlns="http://www.w3.org/2000/svg"><path fill="currentColor" d="M934.272 337.408a62.08 62.08 0 0 1 60.032 64.128l-107.136 465.216a62.08 62.08 0 0 1-58.624 64.064H78.08l102.336-529.28a62.08 62.08 0 0 1 60.032-64.128h693.76zM391.936 93.184a62.08 62.08 0 0 1 60.032 64.064v19.968h361.536a62.08 62.08 0 0 1 60.032 64.128v48.32H196.864a62.08 62.08 0 0 0-60.032 64.064L29.696 878.336V157.248a62.08 62.08 0 0 1 60.032-64.064zM518.4 430.976a172.672 172.672 0 0 0-171.968 173.312A172.672 172.672 0 0 0 518.4 777.6c33.28 0 65.92-9.728 93.632-28.032 1.024 1.28 1.92 2.56 3.072 3.84l103.936 104.768a35.968 35.968 0 0 0 51.2 0 36.736 36.736 0 0 0 0-51.584l-103.872-104.832c-1.28-1.152-2.56-2.112-3.84-3.136 17.536-27.136 27.84-59.52 27.84-94.336a172.608 172.608 0 0 0-171.968-173.312z m0 54.72c64.832 0 117.632 53.248 117.632 118.592A118.272 118.272 0 0 1 518.4 722.88a118.272 118.272 0 0 1-117.632-118.592c0-65.408 52.736-118.592 117.632-118.592z" /></svg>