<?xml version="1.0" standalone="no"?><!DOCTYPE svg PUBLIC "-//W3C//DTD SVG 1.1//EN" "http://www.w3.org/Graphics/SVG/1.1/DTD/svg11.dtd"><svg class="icon" width="200px" height="200.00px" viewBox="0 0 1024 1024" version="1.1" xmlns="http://www.w3.org/2000/svg"><path fill="currentColor" d="M915.328 69.248a32 32 0 0 1 25.472 10.304 33.408 33.408 0 0 1 7.04 26.176v622.272a37.12 37.12 0 0 1-36.864 36.672H639.552l89.152 134.4v2.176a36.224 36.224 0 0 1-19.328 47.616 21.952 21.952 0 0 1-14.912 3.52 35.328 35.328 0 0 1-33.408-21.952l-99.712-165.76h-98.56l-99.712 166.016a32 32 0 0 1-32.64 23.936 21.952 21.952 0 0 1-15.232-3.52h-1.92a36.48 36.48 0 0 1-16.512-48.768l87.872-136.576H112.576a36.864 36.864 0 0 1-36.672-36.864V104.832a36.864 36.864 0 0 1 38.208-35.584h801.28zM731.52 249.984H621.76a36.864 36.864 0 0 0-36.864 36.864v3.968a34.944 34.944 0 0 0 36.864 32.96h25.92l-134.592 165.76-83.008-81.28a35.584 35.584 0 0 0-49.92 0L268.096 518.08a36.48 36.48 0 0 0 49.856 49.856l1.536 1.28 84.736-84.48 84.48 84.48c6.592 7.424 16.128 11.52 25.984 11.008a27.904 27.904 0 0 0 25.92-14.912l154.304-183.616v14.976a36.864 36.864 0 1 0 73.6 0V286.848a36.864 36.864 0 0 0-36.928-36.864z" /></svg>