<?xml version="1.0" standalone="no"?><!DOCTYPE svg PUBLIC "-//W3C//DTD SVG 1.1//EN" "http://www.w3.org/Graphics/SVG/1.1/DTD/svg11.dtd"><svg class="icon" width="200px" height="200.00px" viewBox="0 0 1024 1024" version="1.1" xmlns="http://www.w3.org/2000/svg"><path fill="currentColor" d="M288.32 483.2a128.448 128.448 0 0 0 216.768 8.96l5.632-8.96h2.56a128 128 0 0 0 111.232 64.064c43.84 0 82.56-21.952 105.728-55.424l5.44-8.64h2.56a128.448 128.448 0 0 0 172.928 48.256l8.96-5.376v352.128c0 25.216-18.816 46.08-43.2 49.344l-6.784 0.448H153.856a49.92 49.92 0 0 1-49.472-43.008l-0.448-6.784V526.08a128.32 128.32 0 0 0 176.448-34.304l5.44-8.576h2.496z m500.608 120.896l-161.984 27.84 38.272 41.088L544 758.08l-118.848-87.104-161.664 119.808 34.688 46.784 127.104-94.208 117.952 86.464 162.112-113.728 44.48 47.616 39.04-159.616z m54.144-525.76c18.752 0 35.52 10.432 43.392 26.304l2.496 6.208 49.792 140.672c16 22.72 24.128 51.008 20.352 81.28-6.528 51.84-49.6 94.656-103.36 102.4a125.184 125.184 0 0 1-127.488-59.776c-21.056 36.48-61.568 61.248-108.16 61.248-46.528 0-87.04-24.768-108.096-61.248-21.12 36.48-61.568 61.248-108.16 61.248-46.528 0-87.04-24.768-108.16-61.248A125.248 125.248 0 0 1 168.32 435.2c-53.76-7.808-96.832-50.688-103.36-102.528a114.688 114.688 0 0 1 14.72-72.448l5.632-8.768 49.792-140.672a47.488 47.488 0 0 1 38.976-32l6.912-0.512h662.144z" /></svg>