<?xml version="1.0" standalone="no"?><!DOCTYPE svg PUBLIC "-//W3C//DTD SVG 1.1//EN" "http://www.w3.org/Graphics/SVG/1.1/DTD/svg11.dtd"><svg class="icon" width="200px" height="200.00px" viewBox="0 0 1024 1024" version="1.1" xmlns="http://www.w3.org/2000/svg"><path fill="currentColor" d="M876.992 64a64 64 0 0 1 64 64v729.92a64 64 0 0 1-64 64H147.008a64 64 0 0 1-64-64V128a64 64 0 0 1 64-64h729.984zM537.472 733.248H299.072a30.656 30.656 0 0 0 0 61.248h238.4a30.656 30.656 0 0 0 0-61.248z m187.456-143.424H299.072a30.656 30.656 0 0 0 0 61.248h425.856a30.656 30.656 0 0 0 0-61.248z m-7.936-398.4H611.904l-5.76 0.448a35.328 35.328 0 0 0-29.568 34.88v3.776l0.704 5.248a33.408 33.408 0 0 0 34.56 26.24h24.896L507.84 420.864 428.352 343.04 423.68 339.2a34.048 34.048 0 0 0-43.072 3.84L273.152 448.128l-2.496 5.312a34.88 34.88 0 0 0 50.24 42.432l1.472 1.28 81.152-80.96L484.48 497.152l4.096 3.84c5.76 4.608 13.184 7.04 20.736 6.656a26.688 26.688 0 0 0 24.768-14.336l147.84-175.744v19.904a35.328 35.328 0 0 0 70.4-5.632V226.752l-0.384-5.568a35.328 35.328 0 0 0-34.944-29.76z" /></svg>