<?xml version="1.0" standalone="no"?><!DOCTYPE svg PUBLIC "-//W3C//DTD SVG 1.1//EN" "http://www.w3.org/Graphics/SVG/1.1/DTD/svg11.dtd"><svg class="icon" width="200px" height="200.00px" viewBox="0 0 1024 1024" version="1.1" xmlns="http://www.w3.org/2000/svg"><path fill="currentColor" d="M897.92 149.184c44.672 0 80.896 36.288 80.96 80.96V365.44a42.176 42.176 0 0 1-37.248 41.792 105.6 105.6 0 0 0 0 209.6 42.112 42.112 0 0 1 37.248 41.728v135.296c0 44.672-36.288 80.896-80.96 80.96H126.08a81.024 81.024 0 0 1-80.96-80.96v-135.68a42.304 42.304 0 0 1 36.352-41.6 105.6 105.6 0 0 0 0-209.088 42.24 42.24 0 0 1-36.352-41.6V230.08c0-44.672 36.288-80.896 80.96-80.96h771.84z m-237.44 528.832H363.52a28.032 28.032 0 0 0 0 56.064h296.96a28.032 28.032 0 1 0 0-56.064zM577.28 309.824a105.152 105.152 0 0 0-153.088 143.616 174.528 174.528 0 0 0-91.52 153.664c0 16.448 13.312 29.76 29.76 29.76l13.568 0.064c58.752 0.256 278.976 1.152 287.232-3.648a29.76 29.76 0 0 0 14.784-26.176 174.528 174.528 0 0 0-91.52-153.664A105.152 105.152 0 0 0 577.28 309.76z" /></svg>