<?xml version="1.0" standalone="no"?><!DOCTYPE svg PUBLIC "-//W3C//DTD SVG 1.1//EN" "http://www.w3.org/Graphics/SVG/1.1/DTD/svg11.dtd"><svg class="icon" width="200px" height="200.00px" viewBox="0 0 1024 1024" version="1.1" xmlns="http://www.w3.org/2000/svg"><path fill="currentColor" d="M926.784 896.064a59.328 59.328 0 0 1-59.84 59.392L160 949.888c-38.4 0-64-25.344-64-63.36V191.296c0-38.016 25.6-63.296 64-63.296h128v88.576c0 25.344 25.536 50.688 57.6 57.024h44.8a57.024 57.024 0 0 0 57.6-57.024V127.936h128v88.576c0 25.344 25.472 50.688 57.6 57.024h44.736a57.024 57.024 0 0 0 57.6-57.024V127.936h128c38.464 0 64 25.344 64 63.36l-0.192 152.832L926.72 896z m-702.72-438.4v42.24c0 7.104 6.4 14.144 12.8 14.144h550.4c6.4 0 12.8-7.04 12.8-14.08V457.6c0-7.04-6.4-14.08-12.8-14.08H236.8c-6.4 0-12.8 7.04-12.8 14.08z m0 188.544v44.864c0 6.4 14.08 12.8 28.224 12.8h508.16c14.08 0 28.16-6.4 28.16-12.8v-44.864c0-6.4-14.08-12.864-28.16-12.864h-508.16c-14.08 0-28.16 6.4-28.16 12.8zM392.064 68.48c6.464 0 6.464 0 0 5.952v166.4s0 5.888-6.528 5.888h-45.248s-6.592 0-6.592-5.888v-166.4c0-5.952 6.592-5.952 12.992-5.952h45.44z m291.712 0c6.528 0 6.528 0 6.528 5.952v166.4s0 5.888-6.592 5.888h-45.312s-6.464 0-6.464-5.888v-166.4s0-5.952 6.528-5.952h45.312z" /></svg>