<?xml version="1.0" standalone="no"?><!DOCTYPE svg PUBLIC "-//W3C//DTD SVG 1.1//EN" "http://www.w3.org/Graphics/SVG/1.1/DTD/svg11.dtd"><svg class="icon" width="200px" height="200.00px" viewBox="0 0 1024 1024" version="1.1" xmlns="http://www.w3.org/2000/svg"><path fill="currentColor" d="M61.44 106.688a26.88 26.88 0 0 1 21.248-25.216S452.736 7.872 511.744 7.872c59.008 0 430.08 73.6 430.08 73.6a26.88 26.88 0 0 1 20.672 25.216v383.168c0 140.672-94.784 319.68-213.248 397.824 0 0-175.488 128.576-235.52 128.576-59.968 0-238.464-129.6-238.464-129.6-117.952-78.144-213.76-256.128-213.76-396.8V106.688zM480.576 281.6L384.64 527.68c-3.52 8.576 1.472 16.128 11.072 16.128h91.776c9.6 0 15.616 7.552 13.632 17.152l-29.76 143.68c-7.552 37.76 4.032 42.88 26.24 11.584l183.04-255.616c5.504-7.552 1.92-14.08-7.616-14.592L558.72 442.88c-9.6 0-14.08-7.552-10.624-16.128l64-146.176c3.584-8.576-0.96-15.68-10.56-15.68h-97.28a28.608 28.608 0 0 0-23.68 16.64z" /></svg>