<?xml version="1.0" standalone="no"?><!DOCTYPE svg PUBLIC "-//W3C//DTD SVG 1.1//EN" "http://www.w3.org/Graphics/SVG/1.1/DTD/svg11.dtd"><svg class="icon" width="200px" height="200.00px" viewBox="0 0 1024 1024" version="1.1" xmlns="http://www.w3.org/2000/svg"><path fill="currentColor" d="M927.872 96.128s-140.672 53.12-220.48 28.672C579.136 85.504 511.936 26.816 511.936 26.816s-67.328 58.688-195.392 97.984c-79.808 24.512-220.416-28.672-220.416-28.672s-19.072 293.376 10.24 513.92c29.376 220.48 405.504 387.2 405.504 387.2s376.512-166.72 405.76-387.2c29.312-220.544 10.24-513.92 10.24-513.92z m-267.328 644.48l-148.48-78.08-148.608 78.08 28.352-165.44-120.128-117.12L437.76 433.92 512 283.392 586.24 433.92l166.08 24.128-120.128 117.12 28.352 165.44z" /></svg>