<?xml version="1.0" standalone="no"?><!DOCTYPE svg PUBLIC "-//W3C//DTD SVG 1.1//EN" "http://www.w3.org/Graphics/SVG/1.1/DTD/svg11.dtd"><svg class="icon" width="200px" height="200.00px" viewBox="0 0 1024 1024" version="1.1" xmlns="http://www.w3.org/2000/svg"><path fill="currentColor" d="M512 0a609.92 609.92 0 0 0 207.36 103.04c85.12 26.24 234.24-30.08 234.24-30.08a3318.4 3318.4 0 0 1-10.88 542.72C912 848 512 1024 512 1024s-399.36-176.64-430.72-408.96a3318.4 3318.4 0 0 1-10.88-542.08s149.12 55.04 234.24 30.08A609.92 609.92 0 0 0 512 0z m72.32 320.512H439.488a31.04 31.04 0 0 0-31.04 31.04v41.344H336a31.04 31.04 0 0 0-31.104 31.04v248.512c0 17.152 13.952 31.04 31.104 31.04h352a31.04 31.04 0 0 0 31.104-31.04V423.936a31.04 31.04 0 0 0-31.104-31.04H615.424v-41.344a31.04 31.04 0 0 0-31.04-31.04z m-10.304 31.04c5.76 0 10.368 4.672 10.368 10.368v30.976H439.424v-30.976c0-5.76 4.608-10.368 10.368-10.368h124.224z" /></svg>