<?xml version="1.0" standalone="no"?><!DOCTYPE svg PUBLIC "-//W3C//DTD SVG 1.1//EN" "http://www.w3.org/Graphics/SVG/1.1/DTD/svg11.dtd"><svg class="icon" width="200px" height="200.00px" viewBox="0 0 1024 1024" version="1.1" xmlns="http://www.w3.org/2000/svg"><path fill="currentColor" d="M512 0a512 512 0 1 1 0 1024A512 512 0 0 1 512 0z m69.888 231.872a210.176 210.176 0 0 0-197.504 280.64L258.56 638.4l-6.144 6.848a90.24 90.24 0 0 0 6.144 120.512c16.96 16.96 39.552 26.368 63.552 26.368l8.96-0.448c20.608-2.048 39.744-11.072 54.592-25.92l125.76-125.888 13.696 4.352A210.176 210.176 0 0 0 774.4 358.592l-3.904-8.96h-0.192a12.48 12.48 0 0 0-20.608-4.608c-0.192 0.128-0.32 0.192-0.64 0.192l-115.008 115.2L563.456 389.76l117.44-117.568v-0.192l1.92-2.752a10.688 10.688 0 0 0-1.92-12.288l-1.536-1.28-1.728-0.96-12.48-5.504-13.376-5.248a207.808 207.808 0 0 0-69.888-12.032z" /></svg>