<?xml version="1.0" standalone="no"?><!DOCTYPE svg PUBLIC "-//W3C//DTD SVG 1.1//EN" "http://www.w3.org/Graphics/SVG/1.1/DTD/svg11.dtd"><svg class="icon" width="200px" height="200.00px" viewBox="0 0 1024 1024" version="1.1" xmlns="http://www.w3.org/2000/svg"><path fill="currentColor" d="M774.016 952.256a212.096 212.096 0 0 1-149.312-61.44 210.816 210.816 0 0 1-45.312-67.2 204.544 204.544 0 0 1-16.512-81.408c0-28.672 5.504-55.872 16.512-81.408 10.944-25.6 26.048-47.872 45.312-66.56 19.2-18.816 41.664-33.728 67.456-44.672 25.728-10.88 52.992-16.384 81.856-16.384 28.8 0 56.128 5.504 81.92 16.384 25.728 10.944 48 25.856 66.88 44.608a208.832 208.832 0 0 1 61.312 148.032c0 28.672-5.504 55.872-16.512 81.472-10.944 25.6-25.92 48-44.8 67.072a206.144 206.144 0 0 1-66.944 45.12c-25.728 10.88-53.056 16.384-81.856 16.384z m104-243.84h-76.16V637.696a35.328 35.328 0 0 0-9.28-24.576 30.528 30.528 0 0 0-23.68-10.24 27.52 27.52 0 0 0-22.656 10.24 37.952 37.952 0 0 0-8.32 24.576v70.72h-66.88c-9.6 0-17.92 3.392-24.704 10.24a33.472 33.472 0 0 0-10.304 24.576c0 9.6 3.392 16.768 10.24 21.504a41.984 41.984 0 0 0 24.768 7.168h66.944v72.768c0 9.6 2.752 17.728 8.256 24.576a27.52 27.52 0 0 0 22.592 10.24c9.6 0 17.536-3.392 23.68-10.24a35.392 35.392 0 0 0 9.28-24.576V771.84h76.224v2.048c9.6 0 17.92-2.688 24.768-8.192a27.2 27.2 0 0 0 10.24-22.528 33.472 33.472 0 0 0-10.24-24.576 33.856 33.856 0 0 0-24.768-10.24zM623.68 453.312a564.48 564.48 0 0 1-8.32 29.696 190.336 190.336 0 0 1-10.24 23.04 59.776 59.776 0 0 1-13.44 17.92 40.832 40.832 0 0 0-12.8 15.36c-2.432 5.504-4.48 11.2-6.208 16.96a492.608 492.608 0 0 1-5.696 17.92 61.888 61.888 0 0 1-10.24 18.432c-15.808 20.48-27.648 40.32-35.584 59.392a263.04 263.04 0 0 0-16.448 55.36 210.624 210.624 0 0 0-2.56 52.736c1.344 17.408 4.096 34.304 8.192 50.752 2.752 12.288 6.912 25.088 12.416 38.4 5.44 13.312 13.504 27.008 24.192 40.96 10.624 14.016 24.192 27.648 40.64 40.96 16.512 13.376 37.12 26.176 61.824 38.4-16.512 3.456-35.712 6.528-57.664 9.28a1493.952 1493.952 0 0 1-161.728 8.192c-17.856 0-38.592-0.64-62.272-2.048a2961.664 2961.664 0 0 1-147.328-12.288c-24.32-2.752-46.72-5.632-66.88-8.704a610.56 610.56 0 0 1-51.52-9.728c-14.08-3.456-22.848-6.528-26.24-9.216-6.208-5.504-11.008-20.672-14.464-45.632-3.392-24.96-2.368-57.536 3.072-97.792 3.456-22.592 12.544-39.808 27.328-51.776a168.96 168.96 0 0 1 51.968-28.16c19.968-6.848 40.704-13.12 62.336-18.944 21.632-5.824 40.704-13.824 57.152-24.064 13.056-8.192 23.04-15.936 29.888-23.04 6.848-7.232 11.648-14.528 14.4-22.08 2.752-7.488 4.16-15.36 4.16-23.552s-0.384-17.088-1.088-26.624a51.712 51.712 0 0 0-14.912-33.856 655.872 655.872 0 0 0-27.264-24.576 51.2 51.2 0 0 1-14.464-18.432 221.504 221.504 0 0 1-10.24-23.552 168.192 168.192 0 0 1-8.32-29.696 47.68 47.68 0 0 1-13.312-6.144 68.288 68.288 0 0 1-11.328-12.288 83.2 83.2 0 0 1-11.328-24.64 65.92 65.92 0 0 1-3.648-28.672c1.024-8.832 2.944-16.384 5.696-22.528a60.928 60.928 0 0 1 11.328-19.456c0-23.232 1.344-46.464 4.096-69.696 2.752-19.84 7.04-40.96 12.864-63.488 5.824-22.528 15.296-42.688 28.352-60.48 12.352-17.024 25.6-31.04 39.68-41.984 14.08-10.88 28.608-19.456 43.712-25.6 15.104-6.144 30.208-10.432 45.312-12.8 15.104-2.432 29.568-3.584 43.264-3.584 17.92 0 35.008 2.048 51.52 6.144 16.448 4.096 31.744 9.6 45.824 16.384 14.08 6.784 26.624 14.528 37.568 23.04 11.008 8.512 19.968 17.28 26.816 26.112 15.744 19.84 27.264 41.664 34.496 65.6 7.168 23.872 12.544 46.4 16 67.584 3.392 24.64 4.736 49.216 4.096 73.792a45.056 45.056 0 0 1 10.24 12.288 46.08 46.08 0 0 1 6.208 16.384c1.408 6.848 1.408 15.36 0 25.6a83.2 83.2 0 0 1-8.256 30.72 61.44 61.44 0 0 1-13.376 17.472 51.328 51.328 0 0 1-17.472 10.24z" /></svg>