<?xml version="1.0" standalone="no"?><!DOCTYPE svg PUBLIC "-//W3C//DTD SVG 1.1//EN" "http://www.w3.org/Graphics/SVG/1.1/DTD/svg11.dtd"><svg class="icon" width="200px" height="200.00px" viewBox="0 0 1024 1024" version="1.1" xmlns="http://www.w3.org/2000/svg"><path fill="currentColor" d="M44.16 1001.856v-221.376c0-161.792 87.744-278.656 241.6-278.656h271.36a316.352 316.352 0 0 0-104.832 235.52 316.8 316.8 0 0 0 142.08 264.384l-550.272 0.128z m622.464-775.616c0 112.256-91.84 209.152-204.16 204.16-112.192 0-204.032-86.72-204.032-204.16 0-112.256 86.784-204.096 204.096-204.096 112.256 0 204.096 86.784 204.096 204.16z m252.48 600.256l100.096 99.968a16.32 16.32 0 0 1 0 23.104l-46.72 46.784a16.32 16.32 0 0 1-23.168 0l-99.968-100.096a197.504 197.504 0 1 1 69.76-69.76z m-170.112-1.664a98.816 98.816 0 1 0 0-197.504 98.816 98.816 0 0 0 0 197.568z" /></svg>