<?xml version="1.0" standalone="no"?><!DOCTYPE svg PUBLIC "-//W3C//DTD SVG 1.1//EN" "http://www.w3.org/Graphics/SVG/1.1/DTD/svg11.dtd"><svg class="icon" width="200px" height="200.00px" viewBox="0 0 1024 1024" version="1.1" xmlns="http://www.w3.org/2000/svg"><path fill="currentColor" d="M914.176 42.88H109.888a26.048 26.048 0 0 0-25.984 26.048v886.144c0 14.336 11.648 26.048 26.048 26.048h568.32a73.984 73.984 0 0 0 73.92-74.24l0.64-633.344a74.048 74.048 0 0 0-73.856-74.24H226.24a26.112 26.112 0 0 1 0-52.224l550.784-0.96c15.296 0 29.76 5.376 29.76 34.88v668.672c0 14.336 11.584 26.048 25.984 26.048h81.28a26.048 26.048 0 0 0 26.048-26.048v-780.8a26.048 26.048 0 0 0-25.984-25.984z m-517.76 535.232A113.664 113.664 0 0 1 308.096 467.2a113.472 113.472 0 0 1 226.176-12.608c6.4 57.472-31.424 110.72-87.872 123.456 106.048 12.992 171.2 93.44 171.2 173.696H225.216c0-77.248 64.384-162.56 171.2-173.696z" /></svg>