<?xml version="1.0" standalone="no"?><!DOCTYPE svg PUBLIC "-//W3C//DTD SVG 1.1//EN" "http://www.w3.org/Graphics/SVG/1.1/DTD/svg11.dtd"><svg class="icon" width="200px" height="200.00px" viewBox="0 0 1024 1024" version="1.1" xmlns="http://www.w3.org/2000/svg"><path fill="currentColor" d="M998.08 384v384a64 64 0 0 1-64 64H89.92a64 64 0 0 1-64-64L25.856 384h972.224z m-280.832 136.768a32 32 0 0 0-45.248 45.248l52.288 52.16-52.288 52.288a32 32 0 0 0 45.248 45.248l52.288-52.288 52.224 52.288a32 32 0 1 0 45.248-45.248l-52.224-52.288 52.224-52.16a32 32 0 1 0-45.248-45.248l-52.224 52.16z m-401.856 122.304H160a32 32 0 0 0 0 64h155.392a32 32 0 1 0 0-64zM401.472 512H160a32 32 0 0 0 0 64h241.472a32 32 0 0 0 0-64z m532.608-317.184a64 64 0 0 1 64 64V320H25.856v-61.184a64 64 0 0 1 64-64h844.224z" /></svg>