<?xml version="1.0" standalone="no"?><!DOCTYPE svg PUBLIC "-//W3C//DTD SVG 1.1//EN" "http://www.w3.org/Graphics/SVG/1.1/DTD/svg11.dtd"><svg class="icon" width="200px" height="200.00px" viewBox="0 0 1024 1024" version="1.1" xmlns="http://www.w3.org/2000/svg"><path fill="currentColor" d="M594.752 774.592l202.752-358.976V145.472c0-57.408-46.784-103.936-104.448-103.936H171.392c-58.304 0-105.6 46.592-105.6 104.32v730.56c0 57.6 47.36 104.448 105.6 104.448H584.32l-5.888-33.28c-3.328-15.424-14.976-57.728-11.2-97.152 3.2-33.088 20.992-64 27.52-75.84zM215.68 276.224h375.36c13.056 0 23.488 14.272 23.488 32s-10.56 32-23.488 32H215.744c-12.992 0-23.424-14.272-23.424-32-0.064-17.728 10.432-32 23.424-32z m269.824 481.28H215.744c-12.992 0-23.424-14.272-23.424-32s10.56-32 23.424-32h269.824c13.056 0 23.488 14.272 23.488 32s-10.56 32-23.488 32z m-269.824-208.64c-12.992 0-23.424-14.336-23.424-32 0-17.792 10.56-32 23.424-32h375.36c13.056 0 23.488 14.208 23.488 32 0 17.664-10.56 32-23.488 32H215.744z m751.36-30.656l-72.96-41.792a54.656 54.656 0 0 0-45.76-5.056 53.312 53.312 0 0 0-35.648 26.816l-182.912 311.552c-11.904 21.76-18.56 55.232-13.568 78.72l8.384 48.512c3.392 16.704 11.904 30.208 25.472 36.928a50.112 50.112 0 0 0 27.136 6.72 60.608 60.608 0 0 0 18.624-3.392l47.424-16.64c23.808-8.448 49.28-30.208 62.72-51.968l183.04-313.216a55.872 55.872 0 0 0-22.016-77.184z" /></svg>