<?xml version="1.0" standalone="no"?><!DOCTYPE svg PUBLIC "-//W3C//DTD SVG 1.1//EN" "http://www.w3.org/Graphics/SVG/1.1/DTD/svg11.dtd"><svg class="icon" width="200px" height="200.00px" viewBox="0 0 1024 1024" version="1.1" xmlns="http://www.w3.org/2000/svg"><path d="M877.2608 277.464707v403.172614c0 6.5024-4.874716 14.632484-11.377116 16.254214L483.842381 880.598326c-13.0048 6.5024-26.0096-3.249414-26.0096-16.258977V462.795609c0-6.5024 4.874716-14.632484 11.375926-16.260167l382.042493-183.703219c11.381879-8.130084 26.0096 1.626493 26.0096 14.632484z m0 0" fill="#1296DB" /><path d="M454.580986 966.763163c-6.5024 0-13.008372-1.627684-17.883088-4.879479L83.920372 791.186456C69.287888 784.684056 59.534884 770.051572 59.534884 753.793786V381.506679c0-14.627721 8.130084-27.632521 19.5072-35.762605 11.380688-8.130084 27.637284-8.130084 40.642083-1.627683L474.088186 514.818381c14.632484 6.5024 24.386679 21.12893 24.386679 37.390289v372.283535c0 14.632484-8.131274 27.637284-19.5072 35.762604-8.130084 4.879479-16.260167 6.508353-24.386679 6.508354zM108.307051 748.916688l339.771535 164.194828V555.460465L108.307051 392.888558v356.02813z m466.576075 216.2176c-8.130084 0-14.632484-1.622921-22.762568-6.5024-13.0048-8.131274-19.5072-21.134884-19.5072-35.767367V552.20986c0-16.261358 9.753005-30.887888 24.385489-37.390288L909.776372 344.116391c13.0048-6.5024 27.637284-4.874716 40.642084 1.627683 13.0048 8.130084 19.5072 21.134884 19.5072 35.762605V753.794977c0 16.256595-9.753005 30.889079-24.385489 37.391479L592.762642 961.883684c-4.874716 3.250605-11.377116 3.250605-17.879516 3.250604z m6.5024-409.673823v356.02813l339.767962-162.571907V391.265637L581.385526 555.460465z m-65.027573-66.655256c-6.5024 0-11.380688-1.624112-17.883088-3.251795L116.432372 303.474307c-14.627721-6.5024-24.380726-21.134884-24.380725-39.0144 0-16.260167 9.753005-30.887888 24.380725-37.390288L498.474865 59.618233c11.380688-4.873526 22.757805-4.873526 34.138493 0l378.785935 169.074307c14.632484 6.5024 24.385488 21.134884 24.385488 37.391479 0 16.255405-8.125321 30.887888-24.385488 39.017972L534.23747 485.553414c-6.5024 1.627684-13.0048 3.251795-17.879517 3.251795zM152.19974 266.084019l364.158213 173.949023 360.902847-172.32134L514.73027 105.139795 152.19974 266.084019z m0 0" fill="currentColor" /><path d="M772.866381 696.84986c0.937079 0.717991 1.480037 2.178977 1.634828 4.374624l-1.179981 0.569153c-0.182177-1.611014-0.612019-2.706456-1.285954-3.286325-0.663219-0.565581-1.60387-0.558437-2.825525 0.025004-1.120447 0.533433-2.003944 1.264521-2.646921 2.192075-0.721563 1.004949-1.071628 2.212316-1.047814 3.628056 0.021433 1.207367 0.476279 1.967033 1.36573 2.281376 0.476279 0.11907 1.378828 0.155981 2.704075 0.107163 1.818195-0.060726 3.021991 0.052391 3.611386 0.336967 1.165693 0.517953 1.764614 1.759851 1.799144 3.725694a9.405321 9.405321 0 0 1-1.413358 5.178344 9.087405 9.087405 0 0 1-3.759033 3.442307c-1.602679 0.798958-2.880298 0.858493-3.828093 0.175032-1.084726-0.783479-1.712223-2.479033-1.875349-5.08547l1.182363-0.58106c0.179795 1.999181 0.6656 3.306567 1.455033 3.926921 0.73466 0.542958 1.7408 0.497712 3.016037-0.13693a7.540688 7.540688 0 0 0 2.955311-2.605247c0.73466-1.141879 1.09306-2.354009 1.070438-3.634009-0.025005-1.480037-0.517953-2.4064-1.472893-2.779088-0.526288-0.214326-1.55386-0.275051-3.085098-0.189321-1.681265 0.076205-2.763609 0.015479-3.24227-0.185749-1.09187-0.419126-1.65626-1.531237-1.686028-3.336335-0.032149-1.907498 0.448893-3.603051 1.441935-5.090233a8.247963 8.247963 0 0 1 3.462549-3.068428c1.522902-0.726326 2.737414-0.719181 3.649488 0.015479zM778.9056 693.451609c0.195274 0.150028 0.296484 0.458419 0.304819 0.922791 0.007144 0.404837-0.089302 0.815628-0.288149 1.235944-0.198847 0.379833-0.420316 0.628688-0.663219 0.745377-0.281005 0.134549-0.514381 0.103591-0.697749-0.094065-0.197656-0.210753-0.300056-0.52867-0.3072-0.953749-0.008335-0.466753 0.082158-0.866828 0.270289-1.200223 0.173842-0.389358 0.401265-0.651312 0.68346-0.78467 0.269098-0.127405 0.501284-0.08573 0.697749 0.128595z m-1.1776 5.787982l1.150214-0.553675 0.266716 15.662437-1.149023 0.570345-0.267907-15.679107zM789.393265 696.399777c0.320298-1.202605 0.735851-2.198028 1.250233-2.989842 0.476279-0.771572 1.05734-1.321674 1.738418-1.651498 1.016856-0.489377 1.828912-0.370307 2.438549 0.359591 0.59773 0.753712 0.910884 2.020614 0.940651 3.80666l0.167889 10.061396-1.109731 0.553674-0.165507-9.835163c-0.023814-1.470512-0.227423-2.47427-0.609637-3.008893-0.421507-0.578679-1.065674-0.659647-1.933693-0.240521-0.708465 0.34173-1.285953 1.054958-1.732465 2.134921-0.459609 1.050195-0.677507 2.231367-0.656074 3.54947l0.165507 9.854214-1.14307 0.570344-0.166698-9.897079c-0.050009-2.980316-0.881116-4.081712-2.501656-3.299423-0.741805 0.3584-1.345488 1.125209-1.808669 2.300428-0.489377 1.169265-0.721563 2.438549-0.69894 3.80547l0.161935 9.586307-1.138307 0.566772-0.264335-15.605284 1.139498-0.548912 0.039293 2.35401c0.663219-2.18493 1.593153-3.563758 2.787423-4.140056 1.545526-0.739423 2.57667-0.169079 3.099386 1.713414zM806.014214 687.662437c0.710847 1.138307 1.084726 2.846958 1.121637 5.12 0.036912 2.217079-0.270288 4.236502-0.918028 6.060651-0.745377 1.994419-1.776521 3.320856-3.098195 3.979312-1.506233 0.75014-2.62787 0.095256-3.363721-1.968223l0.151219 9.068353-1.101396 0.556056-0.352446-21.221805 1.046623-0.504855 0.050009 3.025562c0.658456-2.62906 1.749135-4.309135 3.267275-5.040223 1.333581-0.641786 2.398065-0.332205 3.197023 0.925172z m-5.658195 3.75427c-0.504856 1.40026-0.741805 3.041042-0.712038 4.918772l0.005954 0.325061c0.029767 1.85987 0.335777 3.232744 0.918028 4.119813 0.590586 0.900167 1.366921 1.112112 2.326623 0.634642 1.054958-0.523907 1.867014-1.562195 2.438549-3.111293 0.486995-1.412167 0.7168-3.067237 0.68346-4.972353-0.029767-1.903926-0.303628-3.314902-0.818009-4.235312-0.601302-1.035907-1.428837-1.300242-2.483795-0.790623-1.020428 0.492949-1.807479 1.530047-2.358772 3.111293zM809.606549 677.640335l1.0752-0.509619 0.350065 21.33254-1.074009 0.534623-0.351256-21.357544zM820.784819 680.513488c0.6656 1.118065 1.04067 2.95174 1.129972 5.49507l-7.397805 3.628056c0.089302 1.818195 0.414363 3.119628 0.973991 3.900726 0.584633 0.768 1.34787 0.918028 2.288521 0.450083 0.810865-0.403647 1.471702-1.09306 1.987274-2.068242 0.413172-0.809674 0.719181-1.849153 0.9216-3.119628l1.066865-0.525097c-0.185749 1.55386-0.570344 2.941023-1.149023 4.162679-0.719181 1.46813-1.652688 2.49094-2.802902 3.063665-1.282381 0.639405-2.32067 0.432223-3.111293-0.626307-0.818009-1.045433-1.24666-2.787423-1.285954-5.2224-0.036912-2.220651 0.311963-4.26627 1.046623-6.133284 0.754902-1.952744 1.77533-3.237507 3.057712-3.854288 1.445507-0.695367 2.536186-0.411981 3.274419 0.848967z m-5.380763 3.251796c-0.539386 1.299051-0.83587 2.777898-0.893023 4.432967l6.277358-3.068428c-0.233377-3.568521-1.312149-4.890195-3.236317-3.961451-0.90493 0.436986-1.62054 1.302623-2.148018 2.596912zM830.559256 677.980874l-1.013284 0.491759c-0.130977-0.977563-0.390549-1.614586-0.776335-1.90988-0.4096-0.342921-1.016856-0.321488-1.822958 0.069061a3.798326 3.798326 0 0 0-1.599107 1.440744 3.813805 3.813805 0 0 0-0.596539 2.093247c0.011907 0.75133 0.286958 1.227609 0.826344 1.430028 0.364353 0.114307 0.998995 0.152409 1.903925 0.117879 1.099014-0.075014 1.874158 0.010716 2.329005 0.250046 0.721563 0.378642 1.090679 1.200223 1.110921 2.461172 0.048819 3.001749-1.1264 5.099758-3.538754 6.302363-2.296856 1.145451-3.581619 0.065488-3.844762-3.24227l1.026381-0.506046c0.123833 1.258567 0.419126 2.063479 0.878735 2.417116 0.422698 0.313153 1.051386 0.261953 1.881302-0.151219 1.72294-0.854921 2.565953-2.257563 2.534996-4.210307-0.014288-0.900167-0.317916-1.444316-0.909693-1.636018-0.32506-0.110735-0.991851-0.130977-2.000373-0.063107-1.05734 0.052391-1.793191-0.032149-2.203981-0.258382-0.695367-0.339349-1.052577-1.1264-1.071628-2.358772a6.205916 6.205916 0 0 1 0.925172-3.391107c0.602493-1.00733 1.3824-1.7408 2.339721-2.20279 2.11587-1.015665 3.322047-0.064298 3.620912 2.856483zM834.870772 666.906195l0.076205 4.768745 2.28733-1.102587 0.023814 1.481228-2.28733 1.106159 0.159553 9.993525c0.010716 0.64774 0.08573 1.078772 0.226233 1.29667 0.139312 0.198847 0.395312 0.207181 0.76919 0.021432l1.100205-0.54653 0.025005 1.481228-1.234754 0.615591c-0.678698 0.339349-1.170456 0.285767-1.474083-0.158363-0.269098-0.366735-0.411981-1.100205-0.428652-2.206363l-0.160744-10.003051-1.876539 0.907312-0.023814-1.489563 1.876539-0.906121-0.065488-4.057898 1.00733-1.201414zM845.559665 667.842084c0.522716 0.714419 0.798958 1.897972 0.823963 3.551851l0.147646 9.388651-0.944223 0.470326-0.044056-2.794568a12.070102 12.070102 0 0 1-1.363348 2.8672c-0.6656 1.015665-1.410977 1.728893-2.233749 2.139684-0.850158 0.423888-1.543144 0.398884-2.080149-0.078586-0.538195-0.496521-0.8192-1.377637-0.838251-2.649302-0.029767-1.875349 0.402456-3.462549 1.295479-4.759219 0.7168-1.053767 1.676502-1.874158 2.877916-2.462363l2.196837-1.101395-0.009525-0.535814c-0.042865-2.765991-0.896595-3.747126-2.561191-2.943405a4.030512 4.030512 0 0 0-1.794381 1.694363c-0.482233 0.787051-0.765619 1.781284-0.846586 2.985079l-0.991852 0.482233c0.108353-1.712223 0.496521-3.142251 1.166884-4.287703 0.6144-1.05853 1.445507-1.839628 2.49213-2.343293 1.21213-0.582251 2.113488-0.456037 2.706456 0.376261z m-0.140502 5.954679l-2.144447 1.079963c-2.18493 1.088298-3.26013 2.866009-3.220837 5.32599 0.013098 0.814437 0.207181 1.385972 0.583442 1.713414 0.366735 0.331014 0.862065 0.342921 1.487181 0.032149 0.901358-0.447702 1.693172-1.355014 2.375442-2.717172 0.650121-1.327628 0.964465-2.573098 0.946605-3.739981l-0.027386-1.694363zM853.577823 662.61373l0.026196 1.708651c-0.406028-0.011907-0.83587 0.091684-1.294289 0.314345-0.773953 0.373879-1.375256 1.250233-1.807479 2.627869-0.432223 1.265712-0.637023 2.639777-0.613209 4.118624l0.12026 7.665711-0.985897 0.491758-0.228614-14.538418 0.987088-0.475089 0.042865 2.782661c0.216707-1.028763 0.517953-1.901544 0.902549-2.614772 0.448893-0.895405 0.98947-1.493135 1.62054-1.799144 0.523907-0.251237 0.933507-0.345302 1.22999-0.282196zM857.045135 656.339944l0.072632 4.653247 2.177786-1.049005 0.022624 1.445507-2.177786 1.052577 0.152409 9.751814c0.009526 0.63107 0.080967 1.053767 0.215516 1.266902 0.133358 0.196465 0.37626 0.205991 0.732279 0.029767l1.046624-0.520334 0.023814 1.445507-1.175219 0.585823c-0.646549 0.321488-1.114493 0.264335-1.403833-0.172651-0.256-0.360781-0.39174-1.078772-0.408409-2.157545l-0.152409-9.76253-1.786047 0.863256-0.023814-1.453842 1.786047-0.860874-0.061916-3.960261 0.959702-1.157358z" fill="#FFFFFF" /></svg>