<?xml version="1.0" standalone="no"?><!DOCTYPE svg PUBLIC "-//W3C//DTD SVG 1.1//EN" "http://www.w3.org/Graphics/SVG/1.1/DTD/svg11.dtd"><svg class="icon" width="200px" height="200.00px" viewBox="0 0 1024 1024" version="1.1" xmlns="http://www.w3.org/2000/svg"><path fill="currentColor" d="M409.6 563.2l41.152 205.824c2.304 11.52 7.68 21.632 15.104 29.824l37.568-150.272L460.8 563.2h102.4l-42.624 85.376 37.632 150.272a62.336 62.336 0 0 0 13.44-23.68l1.6-6.208L614.4 563.2h76.8a230.4 230.4 0 0 1 230.4 230.4v128a102.4 102.4 0 0 1-102.4 102.4H204.8a102.4 102.4 0 0 1-102.4-102.4v-128a230.4 230.4 0 0 1 230.4-230.4h76.8z m409.6 307.2h-102.4v51.2h102.4v-51.2zM512 0a256 256 0 1 1 0 512 256 256 0 0 1 0-512z" /></svg>