<?xml version="1.0" standalone="no"?><!DOCTYPE svg PUBLIC "-//W3C//DTD SVG 1.1//EN" "http://www.w3.org/Graphics/SVG/1.1/DTD/svg11.dtd"><svg class="icon" width="200px" height="200.00px" viewBox="0 0 1024 1024" version="1.1" xmlns="http://www.w3.org/2000/svg"><path fill="currentColor" d="M929.408 251.904c27.648 0 50.048 22.4 50.048 50.112v550.976c0 27.648-22.4 50.048-50.048 50.048H94.592a50.112 50.112 0 0 1-50.048-50.048V302.016c0-27.648 22.4-50.112 50.048-50.112zM463.232 367.68a57.856 57.856 0 0 0-56 58.112v146.56l-8.32-8.32a55.104 55.104 0 0 0-40.832-15.36 56.832 56.832 0 0 0-38.4 15.36c-9.984 10.112-16.448 23.104-18.496 37.184-2.368 16.576 3.2 33.28 15.168 45.056l125.44 124.672a55.744 55.744 0 0 0 9.792 7.68c31.616 24.32 71.296 35.648 111.04 31.744 26.944 0.896 53.888-3.456 79.232-12.8 18.88-7.232 35.2-20.096 46.592-36.8a199.36 199.36 0 0 0 23.68-114.112V557.376a56.064 56.064 0 0 0-15.232-39.296 52.992 52.992 0 0 0-38.848-16.512h-1.152a51.072 51.072 0 0 0-17.472 3.008 53.888 53.888 0 0 0-64.96-23.36 53.76 53.76 0 0 0-46.528-26.56 33.792 33.792 0 0 0-10.112 1.536v-30.336a60.608 60.608 0 0 0-15.296-40.192 52.224 52.224 0 0 0-39.296-17.984z m405.376-246.592a40.384 40.384 0 0 1 37.12 37.312v19.712a40.384 40.384 0 0 1-43.136 36.416H161.408a40.384 40.384 0 0 1-43.072-36.416v-19.712a40.384 40.384 0 0 1 43.072-37.376z" /></svg>