<?xml version="1.0" standalone="no"?><!DOCTYPE svg PUBLIC "-//W3C//DTD SVG 1.1//EN" "http://www.w3.org/Graphics/SVG/1.1/DTD/svg11.dtd"><svg class="icon" width="200px" height="200.00px" viewBox="0 0 1024 1024" version="1.1" xmlns="http://www.w3.org/2000/svg"><path fill="currentColor" d="M929.408 251.904c27.648 0 50.048 22.4 50.048 50.112v550.976c0 27.648-22.4 50.048-50.048 50.048H94.592a50.112 50.112 0 0 1-50.048-50.048V302.016c0-27.648 22.4-50.112 50.048-50.112z m-279.68 142.08a217.024 217.024 0 1 0-37.568 347.648l51.264 51.392a43.392 43.392 0 0 0 61.44-61.248l-47.936-47.936a217.024 217.024 0 0 0-27.264-289.856z m-146.432 30.4a130.048 130.048 0 0 1 91.2 222.72 39.424 39.424 0 0 0-9.024 6.72c-1.152 1.152-1.984 2.304-3.008 3.456a128.256 128.256 0 0 1-79.168 27.264 130.048 130.048 0 0 1 0-260.16z m365.312-303.36a40.384 40.384 0 0 1 37.12 37.376v19.712a40.384 40.384 0 0 1-43.136 36.416H161.408a40.384 40.384 0 0 1-43.072-36.416v-19.712a40.384 40.384 0 0 1 43.072-37.376z" /></svg>