<?xml version="1.0" standalone="no"?><!DOCTYPE svg PUBLIC "-//W3C//DTD SVG 1.1//EN" "http://www.w3.org/Graphics/SVG/1.1/DTD/svg11.dtd"><svg class="icon" width="200px" height="200.00px" viewBox="0 0 1024 1024" version="1.1" xmlns="http://www.w3.org/2000/svg"><path fill="currentColor" d="M884.8 76.16a64 64 0 0 1 64 64v745.344a64 64 0 0 1-64 64H139.392a64 64 0 0 1-64-64V140.16a64 64 0 0 1 64-64h745.408zM692.48 758.4H331.52a30.08 30.08 0 0 0 0 60.16h360.96a30.08 30.08 0 0 0 0-60.16zM512 207.04A141.44 141.44 0 0 0 371.072 348.16c0 52.224 28.16 97.28 70.528 122.752v32.384l-0.512 4.032a12.672 12.672 0 0 1-9.6 9.6l-4.032 0.512-5.056 0.448a28.288 28.288 0 0 0-23.168 27.776h-56.384l-8.64 0.448a84.928 84.928 0 0 0-76.032 84.16c0 46.528 38.144 84.608 84.672 84.608h338.56l8.576-0.384a84.928 84.928 0 0 0 76.032-84.224c0-46.528-38.144-84.608-84.672-84.608h-56.384l-0.512-5.12a28.352 28.352 0 0 0-22.656-22.656l-5.12-0.448-3.904-0.448c-6.208-1.536-10.176-6.592-10.176-13.696v-32.384l8.896-5.504a141.44 141.44 0 0 0-79.36-258.304z" /></svg>