<?xml version="1.0" standalone="no"?><!DOCTYPE svg PUBLIC "-//W3C//DTD SVG 1.1//EN" "http://www.w3.org/Graphics/SVG/1.1/DTD/svg11.dtd"><svg class="icon" width="200px" height="200.00px" viewBox="0 0 1024 1024" version="1.1" xmlns="http://www.w3.org/2000/svg"><path fill="currentColor" d="M313.088 1000.128s-53.952-61.504-104.96-112.256a4506.304 4506.304 0 0 0-164.8-42.496l112.256-196.736c59.264 78.08 163.264 145.472 261.504 169.856l-104 181.632z m512-122.048c-51.072 50.752-114.624 122.048-114.624 122.048L607.36 818.56c98.176-24.448 192.64-91.328 251.84-169.856l121.408 196.672c-0.512 0.512-82.88 12.16-155.584 32.704zM511.488 23.872C315.968 23.872 147.84 204.032 147.84 402.688c0 198.656 168.128 359.232 363.648 359.232 195.584 0 363.712-170.368 363.712-369.024S707.072 23.872 511.488 23.872z m177.28 355.456l-53.696 56.448a31.168 31.168 0 0 0-8.512 28.8v1.28l12.16 76.608a32.32 32.32 0 0 1-3.648 21.376 34.112 34.112 0 0 1-46.72 14.08l-61.76-33.408a30.336 30.336 0 0 0-31.744 1.28l-60.16 32.512a36.8 36.8 0 0 1-21.888 3.648 35.008 35.008 0 0 1-28.48-39.488l12.608-79.488a31.04 31.04 0 0 0-8.128-25.6l-54.08-58.048a43.008 43.008 0 0 1-9.344-19.328 34.88 34.88 0 0 1 28.864-39.168l69.12-11.136a28.928 28.928 0 0 0 25.216-17.664l31.68-68.416a34.56 34.56 0 1 1 62.592 0l31.296 67.968c4.48 10.752 14.208 17.728 25.984 18.56l69.12 10.688c6.912 1.28 13.824 4.48 19.072 9.472 13.056 13.632 13.44 35.84 0.448 49.024z" /></svg>