<?xml version="1.0" standalone="no"?><!DOCTYPE svg PUBLIC "-//W3C//DTD SVG 1.1//EN" "http://www.w3.org/Graphics/SVG/1.1/DTD/svg11.dtd"><svg class="icon" width="200px" height="200.00px" viewBox="0 0 1024 1024" version="1.1" xmlns="http://www.w3.org/2000/svg"><path fill="currentColor" d="M511.36 0C230.144 0 0 230.144 0 511.36c0 281.28 230.144 511.36 511.36 511.36 281.28 0 511.36-230.08 511.36-511.36C1022.72 230.144 792.64 0 511.36 0z m340.032 791.232c0 25.408-25.408 50.816-50.816 50.816h-152.448a50.944 50.944 0 0 1-50.816-50.816V638.72c0-30.464 25.408-50.816 50.816-50.816h30.464v-35.52c0-10.24-10.112-15.296-15.232-15.296H348.352c-10.176 0-15.232 10.24-15.232 15.296v35.52h45.76c30.464 0 50.752 25.408 50.752 50.816v152.448c0 25.408-25.344 50.816-50.752 50.816H226.432a50.944 50.944 0 0 1-50.816-50.816V638.72c0-30.464 25.408-50.816 50.816-50.816h55.872v-35.52c0-30.528 25.408-66.048 66.048-66.048h132.096v-55.936h-50.816a50.944 50.944 0 0 1-50.752-50.816V227.264c0-30.528 25.408-50.816 50.752-50.816h152.448c30.464 0 50.816 25.408 50.816 50.816v152.384a50.944 50.944 0 0 1-50.816 50.816h-50.816V486.4h132.096c30.528 0 66.048 25.344 66.048 66.048v35.52h71.168c30.464 0 50.816 25.408 50.816 50.816v152.448z" /></svg>