<?xml version="1.0" standalone="no"?><!DOCTYPE svg PUBLIC "-//W3C//DTD SVG 1.1//EN" "http://www.w3.org/Graphics/SVG/1.1/DTD/svg11.dtd"><svg class="icon" width="200px" height="200.00px" viewBox="0 0 1024 1024" version="1.1" xmlns="http://www.w3.org/2000/svg"><path fill="currentColor" d="M938.624 848.384H343.808v-84.096a28.096 28.096 0 0 0-56.064 0v84.096H96c-33.472 0-60.544-16.896-60.544-51.52V608.768c50.112 0 85.44-42.112 85.44-94.08 0-51.904-35.328-94.016-85.44-94.016V236.864c0-34.56 27.072-61.248 60.544-61.248h191.744v84.096a28.096 28.096 0 0 0 56.064 0V175.616H928c33.472 0 60.544 26.688 60.544 61.248v183.936c-50.112 0-80.064 42.048-80.064 94.08 0 51.904 29.952 94.016 80.064 94.016v187.968c-0.128 34.56-16.448 51.52-49.92 51.52zM343.808 371.904a28.096 28.096 0 0 0-56.064 0v84.032a28.096 28.096 0 0 0 56.064 0V371.904z m0 196.16a28.096 28.096 0 0 0-56.064 0v84.032a28.096 28.096 0 0 0 56.064 0V568.064z" /></svg>