<?xml version="1.0" standalone="no"?><!DOCTYPE svg PUBLIC "-//W3C//DTD SVG 1.1//EN" "http://www.w3.org/Graphics/SVG/1.1/DTD/svg11.dtd"><svg class="icon" width="200px" height="200.00px" viewBox="0 0 1024 1024" version="1.1" xmlns="http://www.w3.org/2000/svg"><path fill="currentColor" d="M138.624 196.8c12.416-14.912 24.896-28.8 37.312-41.728 9.6-11.52 19.84-22.4 30.592-32.704 10.752-10.24 18.88-17.664 24.384-22.4 7.68-6.144 15.808-11.648 24.384-16.384 10.88-5.184 22.848-7.68 34.816-7.04h448.512c10.624 0.256 21.12 2.112 31.168 5.504 13.12 4.672 24.96 12.544 34.304 22.912 5.504 6.784 12.8 15.232 21.76 25.408l25.984 29.568c9.664 11.52 19.328 23.68 29.056 36.544H138.624v0.32z m780.032 448.704H103.424a63.232 63.232 0 0 0-63.104 63.36v175.36c0 34.944 28.16 63.36 63.104 63.36h815.232a63.232 63.232 0 0 0 63.104-63.36v-175.36a63.232 63.232 0 0 0-63.104-63.36z m-330.944 150.976a25.6 25.6 0 0 1-6.784 17.92 23.36 23.36 0 0 1-18.112 7.424H457.92a25.088 25.088 0 0 1-18.624-7.424 25.728 25.728 0 0 1 0-35.84 24.96 24.96 0 0 1 18.624-7.424h104.896a23.424 23.424 0 0 1 18.112 7.424c4.48 4.864 6.912 11.328 6.784 17.92z m332.8-520.448H105.408a63.232 63.232 0 0 0-63.104 63.296v175.424a63.232 63.232 0 0 0 63.104 63.36h815.232a63.232 63.232 0 0 0 63.104-63.36V339.328a63.232 63.232 0 0 0-63.104-63.36z m-330.88 150.976a25.6 25.6 0 0 1-6.784 17.92 23.36 23.36 0 0 1-18.176 7.36H459.84a25.088 25.088 0 0 1-18.688-7.36 25.728 25.728 0 0 1 0-35.84 25.088 25.088 0 0 1 18.688-7.424h104.832a23.424 23.424 0 0 1 18.176 7.36 25.6 25.6 0 0 1 6.72 17.92z" /></svg>