<?xml version="1.0" standalone="no"?><!DOCTYPE svg PUBLIC "-//W3C//DTD SVG 1.1//EN" "http://www.w3.org/Graphics/SVG/1.1/DTD/svg11.dtd"><svg class="icon" width="200px" height="200.00px" viewBox="0 0 1024 1024" version="1.1" xmlns="http://www.w3.org/2000/svg"><path fill="currentColor" d="M900.224 66.304a87.68 87.68 0 0 1 85.952 88.896v533.44a87.744 87.744 0 0 1-86.528 88.896H597.952l86.528 133.376v44.416h-344.96v-44.416l86.528-133.376H123.776a87.68 87.68 0 0 1-85.952-88.96V155.264a87.68 87.68 0 0 1 85.952-88.96z m-512.832 176.64v297.408c10.496-20.352 34.624-44.864 72.576-73.6L512 564.48c12.864 14.72 29.632 16.832 50.24 6.4 20.544-10.496 25.92-25.024 16.128-43.584L527.04 444.16c24.192-9.6 60.672-13.76 109.568-12.416l-249.216-188.8z" /></svg>