<?xml version="1.0" standalone="no"?><!DOCTYPE svg PUBLIC "-//W3C//DTD SVG 1.1//EN" "http://www.w3.org/Graphics/SVG/1.1/DTD/svg11.dtd"><svg class="icon" width="200px" height="200.00px" viewBox="0 0 1024 1024" version="1.1" xmlns="http://www.w3.org/2000/svg"><path fill="currentColor" d="M265.6 301.632a42.624 42.624 0 0 1 22.08-24.064h36.288l468.416 170.56h125.568V277.568c0-47.104-38.144-85.248-85.248-85.248H449.216v-42.624a42.688 42.688 0 0 0-42.624-42.624H150.784a42.688 42.688 0 0 0-42.624 42.624v298.24h104.064l53.312-146.304z m669.056 189.12H90.88c-46.528 0-68.8 50.432-50.944 108.544l77.568 251.776c11.52 37.312 47.936 65.92 82.048 65.92h616.96c34.176 0 71.104-28.608 83.456-65.92l83.2-251.776c19.136-58.112-1.92-108.544-48.512-108.544z" /></svg>