<?xml version="1.0" standalone="no"?><!DOCTYPE svg PUBLIC "-//W3C//DTD SVG 1.1//EN" "http://www.w3.org/Graphics/SVG/1.1/DTD/svg11.dtd"><svg class="icon" width="200px" height="200.00px" viewBox="0 0 1024 1024" version="1.1" xmlns="http://www.w3.org/2000/svg"><path fill="currentColor" d="M934.272 337.408a62.08 62.08 0 0 1 60.032 64.128l-107.136 465.216a62.08 62.08 0 0 1-58.624 64.064H78.08l102.336-529.28a62.08 62.08 0 0 1 60.032-64.128h693.76zM391.936 93.184a62.08 62.08 0 0 1 60.032 64.064v19.968h361.536a62.08 62.08 0 0 1 60.032 64.128v48.32H196.864a62.08 62.08 0 0 0-60.032 64.064L29.696 878.336V157.248a62.08 62.08 0 0 1 60.032-64.064z m265.344 712.256H417.536a13.312 13.312 0 0 0 0 26.624h239.744a13.312 13.312 0 0 0 0-26.624zM537.408 451.2c-39.68 0-71.936 32.192-71.936 71.936 0 12.352 6.144 28.352 18.368 48.128l11.392 23.04A62.912 62.912 0 0 1 448 684.416l-45.696 6.784a24 24 0 0 0-23.808 20.608l-5.248 16a74.624 74.624 0 0 0-3.776 23.36c0 7.872 1.856 15.68 5.376 22.72l0.64 1.28a21.76 21.76 0 0 0 19.392 11.968h285.12a21.696 21.696 0 0 0 19.392-11.968l0.64-1.28a50.816 50.816 0 0 0 5.376-22.72c0-7.936-1.28-15.872-3.84-23.36l-5.248-16a24 24 0 0 0-23.744-20.608l-43.264-6.912a65.088 65.088 0 0 1-48.128-93.056l9.792-19.84c12.288-19.84 18.432-35.84 18.432-48.192 0-39.68-32.256-71.936-72-71.936z" /></svg>