<?xml version="1.0" standalone="no"?><!DOCTYPE svg PUBLIC "-//W3C//DTD SVG 1.1//EN" "http://www.w3.org/Graphics/SVG/1.1/DTD/svg11.dtd"><svg class="icon" width="200px" height="200.00px" viewBox="0 0 1024 1024" version="1.1" xmlns="http://www.w3.org/2000/svg"><path fill="currentColor" d="M143.68 62.208h733.312c44.992 0 81.472 36.48 81.472 81.472v733.312c0 44.992-36.48 81.472-81.472 81.472H143.68c-44.992 0-81.472-36.48-81.472-81.472V143.68c0-44.992 36.48-81.472 81.472-81.472zM225.28 795.52h570.24a285.184 285.184 0 0 0-249.152-282.88l-16.96 31.616h-38.016l-16.896-31.68a285.184 285.184 0 0 0-249.216 282.88z m244.992-290.88l-0.64-1.152h81.536l-0.64 1.088a142.72 142.72 0 0 0-40.128-279.36 142.592 142.592 0 0 0-40.128 279.424z m-0.64 200.96l21.76-140.992h38.016l21.76 141.056-40.768 42.304-40.704-42.24v-0.064z" /></svg>