<?xml version="1.0" standalone="no"?><!DOCTYPE svg PUBLIC "-//W3C//DTD SVG 1.1//EN" "http://www.w3.org/Graphics/SVG/1.1/DTD/svg11.dtd"><svg class="icon" width="200px" height="200.00px" viewBox="0 0 1024 1024" version="1.1" xmlns="http://www.w3.org/2000/svg"><path fill="currentColor" d="M731.52 633.28l-107.136 119.232a31.744 31.744 0 0 1-23.552 10.304 31.04 31.04 0 0 1-23.488-8.96 33.6 33.6 0 0 1-1.408-46.976l56.896-63.488h-315.52a33.408 33.408 0 0 1 0-66.56h390.528a33.408 33.408 0 0 1 23.488 55.744M291.008 389.12L398.08 269.888a32 32 0 0 1 23.488-10.624 31.488 31.488 0 0 1 23.488 8.704c13.44 12.416 14.528 33.344 2.368 47.04l-57.152 63.488h314.816a33.216 33.216 0 0 1 0 66.304H314.752a33.152 33.152 0 0 1-23.488-55.488M512 41.792a470.144 470.144 0 1 0 0 940.352A470.144 470.144 0 0 0 512 41.856" /></svg>