<?xml version="1.0" standalone="no"?><!DOCTYPE svg PUBLIC "-//W3C//DTD SVG 1.1//EN" "http://www.w3.org/Graphics/SVG/1.1/DTD/svg11.dtd"><svg class="icon" width="200px" height="200.00px" viewBox="0 0 1024 1024" version="1.1" xmlns="http://www.w3.org/2000/svg"><path fill="currentColor" d="M536.768 70.848l393.984 195.008a51.52 51.52 0 0 1 0 92.416L536.768 553.28a51.52 51.52 0 0 1-45.76 0L97.024 358.272a51.52 51.52 0 0 1 0-92.416l393.984-195.008a51.52 51.52 0 0 1 45.76 0zM864 429.056l62.912 31.104a51.52 51.52 0 0 1 0 92.352L532.928 747.52a51.52 51.52 0 0 1-45.696 0L93.184 552.512a51.52 51.52 0 0 1 0-92.352l62.912-31.104 331.136 163.84c14.4 7.168 31.36 7.168 45.696 0l331.136-163.84z m0 205.568l62.912 31.104a51.52 51.52 0 0 1 0 92.416l-394.048 195.008a51.52 51.52 0 0 1-45.696 0l-394.048-195.008a51.52 51.52 0 0 1 0-92.352l62.912-31.168 331.136 163.84c14.4 7.168 31.36 7.168 45.696 0l331.136-163.84z" /></svg>