<?xml version="1.0" standalone="no"?><!DOCTYPE svg PUBLIC "-//W3C//DTD SVG 1.1//EN" "http://www.w3.org/Graphics/SVG/1.1/DTD/svg11.dtd"><svg class="icon" width="200px" height="200.00px" viewBox="0 0 1024 1024" version="1.1" xmlns="http://www.w3.org/2000/svg"><path fill="currentColor" d="M900.224 66.304H123.776A87.68 87.68 0 0 0 37.824 155.2v533.44a87.68 87.68 0 0 0 85.952 88.896h302.272l-86.528 133.376v44.416h344.96v-44.416l-86.528-133.376h301.696a87.68 87.68 0 0 0 86.528-88.96V155.264a87.68 87.68 0 0 0-85.952-88.96z m0 533.44H123.776V155.2h776.448V599.68zM481.728 210.368v176.768a63.936 63.936 0 0 0 0 120.512v42.432a24.256 24.256 0 0 0 24.704 23.808 23.936 23.936 0 0 0 24.512-23.808v-42.432a63.872 63.872 0 0 0 0-120.512V210.368a24.64 24.64 0 0 0-49.28 0z m49.344 237.184a24.704 24.704 0 1 1-24.64-23.808 24.256 24.256 0 0 1 24.64 23.808z m147.2-237.184v30.528a63.872 63.872 0 0 0 0 120.512v188.672a24.256 24.256 0 0 0 24.576 23.808 23.936 23.936 0 0 0 24.64-23.808V361.408a63.872 63.872 0 0 0 0-120.512v-30.528a24.64 24.64 0 0 0-49.216 0z m-392.96 0v30.528a63.872 63.872 0 0 0 0 120.512v188.672a24.256 24.256 0 0 0 24.512 23.808 23.936 23.936 0 0 0 24.64-23.808V361.408a63.872 63.872 0 0 0 0-120.512v-30.528a24.64 24.64 0 0 0-49.152 0z m442.24 90.88a24.704 24.704 0 1 1-24.704-23.68 24.256 24.256 0 0 1 24.704 23.68z m-392.96 0a24.704 24.704 0 1 1-24.768-23.68 24.256 24.256 0 0 1 24.704 23.68z" /></svg>