<?xml version="1.0" standalone="no"?><!DOCTYPE svg PUBLIC "-//W3C//DTD SVG 1.1//EN" "http://www.w3.org/Graphics/SVG/1.1/DTD/svg11.dtd"><svg class="icon" width="200px" height="200.00px" viewBox="0 0 1024 1024" version="1.1" xmlns="http://www.w3.org/2000/svg"><path fill="currentColor" d="M795.072 37.76a161.728 161.728 0 0 1 161.728 161.792v781.76L512 828.544l-444.8 152.768V199.552A161.728 161.728 0 0 1 228.928 37.824h566.144zM568 215.04a12.48 12.48 0 0 0-14.592 7.04 45.184 45.184 0 0 1-82.816 0 12.48 12.48 0 0 0-14.592-7.04c-37.76 9.6-72.32 28.8-100.416 55.552a12.48 12.48 0 0 0-0.384 17.664 45.184 45.184 0 0 1-45.44 74.56 12.48 12.48 0 0 0-15.488 8.512 226.88 226.88 0 0 0-2.24 118.912c1.792 7.04 9.216 11.136 16.128 8.832a45.12 45.12 0 0 1 43.648 77.184 12.48 12.48 0 0 0-0.704 18.304 226.56 226.56 0 0 0 100.416 58.88 12.48 12.48 0 0 0 15.68-10.432 45.184 45.184 0 0 1 89.6 0 12.48 12.48 0 0 0 15.68 10.432 226.56 226.56 0 0 0 100.48-58.88 12.48 12.48 0 0 0-0.768-18.304 45.184 45.184 0 0 1 43.712-77.248 12.48 12.48 0 0 0 16-8.768 227.2 227.2 0 0 0-2.176-118.912 12.48 12.48 0 0 0-15.488-8.512 45.184 45.184 0 0 1-45.44-74.56 12.48 12.48 0 0 0-0.384-17.664 226.368 226.368 0 0 0-100.48-55.616zM512 348.16a78.4 78.4 0 1 1 0 156.8 78.4 78.4 0 0 1 0-156.8z" /></svg>