<?xml version="1.0" standalone="no"?><!DOCTYPE svg PUBLIC "-//W3C//DTD SVG 1.1//EN" "http://www.w3.org/Graphics/SVG/1.1/DTD/svg11.dtd"><svg class="icon" width="200px" height="200.00px" viewBox="0 0 1024 1024" version="1.1" xmlns="http://www.w3.org/2000/svg"><path fill="currentColor" d="M884.8 76.16a64 64 0 0 1 64 64v745.344a64 64 0 0 1-64 64H139.392a64 64 0 0 1-64-64V140.16a64 64 0 0 1 64-64h745.408z m-196.544 667.648H335.744a29.376 29.376 0 1 0 0 58.752h352.512a29.376 29.376 0 0 0 0-58.752zM512 205.44A138.176 138.176 0 0 0 374.4 343.168c0 50.944 27.52 95.04 68.864 119.808v31.68l-0.448 3.84a12.416 12.416 0 0 1-9.408 9.472l-3.84 0.448-4.992 0.448a27.648 27.648 0 0 0-22.592 27.136h-55.104l-8.448 0.384c-41.536 4.288-74.24 39.68-74.24 82.24 0 45.44 37.248 82.688 82.688 82.688h330.56l8.448-0.448a82.944 82.944 0 0 0 74.24-82.24c0-45.44-37.248-82.624-82.688-82.624h-55.04l-0.512-4.928a27.712 27.712 0 0 0-22.144-22.208l-4.928-0.448-3.84-0.448c-6.144-1.472-9.92-6.4-9.92-13.312v-31.68l8.64-5.376A138.112 138.112 0 0 0 512 205.44z" /></svg>