<?xml version="1.0" standalone="no"?><!DOCTYPE svg PUBLIC "-//W3C//DTD SVG 1.1//EN" "http://www.w3.org/Graphics/SVG/1.1/DTD/svg11.dtd"><svg class="icon" width="200px" height="200.00px" viewBox="0 0 1024 1024" version="1.1" xmlns="http://www.w3.org/2000/svg"><path fill="currentColor" d="M864.128 95.232H157.312c-52.096 0-94.72 42.56-94.72 94.72V830.72c0 52.096 42.624 94.72 94.72 94.72h706.816c52.096 0 94.72-42.624 94.72-94.72V189.888c0-52.096-42.624-94.72-94.72-94.72z m-82.432 357.504l-102.912 126.208a73.984 73.984 0 1 1-120.32 25.472L433.28 494.08a75.008 75.008 0 0 1-46.208-3.136L308.48 580.288a73.984 73.984 0 1 1-32.64-44.8L347.776 453.76a73.984 73.984 0 1 1 129.6 7.872l118.08 103.296c9.6-4.608 20.288-7.104 31.744-7.104h1.792l101.824-123.84a73.984 73.984 0 1 1 123.008-55.424 73.92 73.92 0 0 1-72.064 74.24z" /></svg>