<?xml version="1.0" standalone="no"?><!DOCTYPE svg PUBLIC "-//W3C//DTD SVG 1.1//EN" "http://www.w3.org/Graphics/SVG/1.1/DTD/svg11.dtd"><svg class="icon" width="200px" height="200.00px" viewBox="0 0 1024 1024" version="1.1" xmlns="http://www.w3.org/2000/svg"><path fill="currentColor" d="M638.4064 17.024a511.104 511.104 0 0 1 226.688 125.44 28.16 28.16 0 0 1 0.96 39.936 102.016 102.016 0 0 0 102.592 168.32 28.16 28.16 0 0 1 35.008 19.2c13.44 46.208 20.352 94.336 20.352 143.36 0 42.624-5.184 84.544-15.424 125.184a28.16 28.16 0 0 1-36.288 19.84 102.016 102.016 0 0 0-98.624 174.336 28.16 28.16 0 0 1 1.664 41.408 511.552 511.552 0 0 1-226.752 132.8 28.16 28.16 0 0 1-35.456-23.488 102.08 102.08 0 0 0-202.24 0 28.16 28.16 0 0 1-35.456 23.488 511.552 511.552 0 0 1-226.752-132.8 28.16 28.16 0 0 1 1.664-41.344 102.016 102.016 0 0 0-98.624-174.336 28.16 28.16 0 0 1-36.288-19.904A513.024 513.024 0 0 1 0.0064 513.28c0-49.024 6.912-97.152 20.352-143.36a28.16 28.16 0 0 1 35.008-19.2 102.08 102.08 0 0 0 102.592-168.32 28.16 28.16 0 0 1 0.96-39.872A511.104 511.104 0 0 1 385.6064 17.024a28.16 28.16 0 0 1 32.832 16 102.016 102.016 0 0 0 187.136 0 28.16 28.16 0 0 1 32.832-16zM512.0064 317.568a177.088 177.088 0 1 0 0 354.176 177.088 177.088 0 0 0 0-354.176z" /></svg>