<?xml version="1.0" standalone="no"?><!DOCTYPE svg PUBLIC "-//W3C//DTD SVG 1.1//EN" "http://www.w3.org/Graphics/SVG/1.1/DTD/svg11.dtd"><svg class="icon" width="200px" height="200.00px" viewBox="0 0 1024 1024" version="1.1" xmlns="http://www.w3.org/2000/svg"><path fill="currentColor" d="M183.488 64h657.024C906.24 64 960 117.76 960 183.488v657.024C960 906.24 906.24 960 840.512 960H183.488A119.808 119.808 0 0 1 64 840.512V183.488C64 117.76 117.76 64 183.488 64zM691.2 422.4c47.808 0 89.6-41.792 89.6-89.6 0-47.808-41.792-89.6-89.6-89.6-47.808 0-89.6 41.792-89.6 89.6 0 47.808 41.792 89.6 89.6 89.6z m-238.912 232.96l-59.776-95.552c0-6.016-5.952-6.016-11.904-11.968-17.92-5.952-35.84-5.952-41.856 11.968L183.488 798.72v11.968c0 17.92 11.904 29.824 29.824 29.824h609.28a25.664 25.664 0 0 0 23.936-23.872c0-5.952 0-11.968-6.016-11.968L709.12 619.52c-5.952-11.968-23.872-11.968-35.84-5.952l-5.952 5.952-11.968 11.968-83.648 131.392c-11.904 11.968-29.824 17.92-41.792 5.952-5.952 0-5.952-5.952-5.952-11.904l-71.68-101.568z" /></svg>