<?xml version="1.0" standalone="no"?><!DOCTYPE svg PUBLIC "-//W3C//DTD SVG 1.1//EN" "http://www.w3.org/Graphics/SVG/1.1/DTD/svg11.dtd"><svg class="icon" width="200px" height="200.00px" viewBox="0 0 1024 1024" version="1.1" xmlns="http://www.w3.org/2000/svg"><path fill="currentColor" d="M591.808 371.456a19.584 19.584 0 0 0-9.984 2.368 23.808 23.808 0 0 0-6.912 5.952c-1.92 2.368-3.84 5.376-5.76 8.768l-5.568 9.792-47.296 80.192-52.928-85.056a91.776 91.776 0 0 0-12.032-16.768 18.176 18.176 0 0 0-13.44-5.12 17.792 17.792 0 0 0-13.312 5.248 19.072 19.072 0 0 0-5.184 13.952c0 3.328 0.64 6.272 1.792 8.96 1.152 2.688 3.776 7.168 7.68 13.44l49.024 78.72h-20.8c-15.488 0-23.232 5.12-23.232 15.488 0 10.56 7.744 15.808 23.232 15.808h36.864v24.128h-36.864c-15.488 0-23.232 5.248-23.232 15.808 0 10.304 7.744 15.488 23.232 15.488h36.864v13.44c0 22.72 7.488 33.984 22.4 33.984 14.72 0 22.208-11.264 22.208-34.048v-13.44h36.864c15.36 0 23.04-5.12 23.04-15.424 0-10.56-7.808-15.808-23.04-15.808h-37.12v-24.128h37.12c15.36 0 23.04-5.248 23.04-15.808 0-10.304-7.808-15.488-23.04-15.488h-20.8l47.168-79.808a110.08 110.08 0 0 0 6.464-12.224 27.2 27.2 0 0 0 2.112-10.752 16.704 16.704 0 0 0-5.184-12.48 18.112 18.112 0 0 0-13.44-5.184zM939.136 191.232H90.496a42.368 42.368 0 0 0-42.432 42.368v519.808c0 11.712 4.16 21.76 12.416 29.952 8.32 8.32 18.304 12.416 30.016 12.416h848.576a40.96 40.96 0 0 0 29.952-12.416 40.96 40.96 0 0 0 12.416-29.952v-519.68a42.304 42.304 0 0 0-42.24-42.496zM273.92 329.152h-89.6c-10.624 0-19.2-14.208-19.2-31.872 0-17.6 8.576-31.808 19.2-31.808h89.6c10.624 0 19.2 14.208 19.2 31.808 0 17.664-8.576 31.872-19.2 31.872z m240.896 392.448c-99.584 0-180.352-99.712-180.352-222.72 0-123.072 80.768-222.72 180.352-222.72s180.352 99.648 180.352 222.72c0 123.008-80.768 222.72-180.352 222.72z m310.336 10.624h-89.6c-10.624 0-19.2-14.208-19.2-31.872 0-17.6 8.576-31.744 19.2-31.744h89.6c10.624 0 19.2 14.144 19.2 31.744 0 17.664-8.64 31.872-19.2 31.872z" /></svg>