<?xml version="1.0" standalone="no"?><!DOCTYPE svg PUBLIC "-//W3C//DTD SVG 1.1//EN" "http://www.w3.org/Graphics/SVG/1.1/DTD/svg11.dtd"><svg class="icon" width="200px" height="200.00px" viewBox="0 0 1024 1024" version="1.1" xmlns="http://www.w3.org/2000/svg"><path fill="currentColor" d="M550.72 51.84c50.048 0 90.688 39.872 92.032 89.6h119.68a64 64 0 0 1 64 64l0.064 184.128a320.64 320.64 0 0 0-346.624 521.344l-386.368-0.064a64 64 0 0 1-64-64V205.44a64 64 0 0 1 64-64h119.808l0.32-6.464c4.48-46.72 43.776-83.2 91.648-83.2h245.44zM350.464 452.608H151.872a30.72 30.72 0 0 0-5.504 60.864l5.504 0.512h198.592a30.72 30.72 0 0 0 0-61.376z m157.44-155.456H151.872a30.72 30.72 0 0 0-5.504 60.864l5.504 0.512h356.032a30.72 30.72 0 0 0 0-61.376z m-1.92-184.064H350.016a30.72 30.72 0 0 0-5.504 60.864l5.504 0.512h155.968a30.72 30.72 0 1 0 0-61.376zM718.336 419.904a276.16 276.16 0 1 1 0 552.32 276.16 276.16 0 0 1 0-552.32z m0 141.312c-101.504 0-183.872 134.848-183.872 134.848s82.368 134.784 183.872 134.784c101.44 0 183.808-134.784 183.808-134.784s-82.24-134.848-183.808-134.848z m-58.88 77.696a80.64 80.64 0 0 1 138.048 57.152 79.36 79.36 0 0 1-79.168 80.128l-8.128-0.256a80.64 80.64 0 0 1-50.752-137.024z m58.88 5.888a50.816 50.816 0 0 0-50.368 51.2c0 18.368 9.6 35.264 25.152 44.416a49.664 49.664 0 0 0 50.368 0 51.392 51.392 0 0 0 25.216-44.352c0-28.288-22.592-51.2-50.368-51.2z" /></svg>