<?xml version="1.0" standalone="no"?><!DOCTYPE svg PUBLIC "-//W3C//DTD SVG 1.1//EN" "http://www.w3.org/Graphics/SVG/1.1/DTD/svg11.dtd"><svg class="icon" width="200px" height="200.00px" viewBox="0 0 1024 1024" version="1.1" xmlns="http://www.w3.org/2000/svg"><path fill="currentColor" d="M718.336 419.904a276.16 276.16 0 1 1 0 552.32 276.16 276.16 0 0 1 0-552.32zM550.72 51.776c50.048 0 90.688 39.936 92.032 89.6h119.68a64 64 0 0 1 64 64l0.064 184.192a320.64 320.64 0 0 0-346.624 521.344l-386.368-0.064a64 64 0 0 1-64-64V205.44a64 64 0 0 1 64-64h119.808l0.32-6.464c4.48-46.72 43.776-83.2 91.648-83.2h245.44z m285.504 804.864H600.32a19.648 19.648 0 0 0-4.48 38.784l4.48 0.512h235.968a19.648 19.648 0 1 0 0-39.296z m-117.888-360.448c-50.752 0-92.224 41.472-92.224 92.16 0 30.72 14.912 57.728 38.08 74.88l8 5.376v21.184l-0.384 3.136a8.32 8.32 0 0 1-3.2 4.48l-2.56 1.216-3.072 0.384-4.224 0.512a18.56 18.56 0 0 0-13.696 13.76l-0.512 4.224h-36.864l-6.912 0.384a55.552 55.552 0 0 0-48.448 54.912c0 28.096 21.248 51.456 48.448 54.912l6.912 0.448h221.312l6.912-0.448a55.552 55.552 0 0 0 48.384-54.912 55.552 55.552 0 0 0-48.384-54.912l-6.912-0.384h-36.928l-0.448-4.224a18.56 18.56 0 0 0-9.856-12.352l-3.84-1.408-4.288-0.512-3.072-0.384a8.256 8.256 0 0 1-5.76-5.76l-0.384-3.072v-21.184l7.296-4.608a92.544 92.544 0 0 0-53.376-167.808z m-367.872-43.52H151.872a30.72 30.72 0 0 0-5.504 60.864l5.504 0.512h198.592a30.72 30.72 0 0 0 0-61.376z m157.44-155.456H151.872a30.72 30.72 0 0 0-5.504 60.864l5.504 0.512h356.032a30.72 30.72 0 0 0 0-61.376z m-1.92-184.064H350.016a30.72 30.72 0 0 0-5.504 60.864l5.504 0.512h155.968a30.72 30.72 0 1 0 0-61.376z" /></svg>