<?xml version="1.0" standalone="no"?><!DOCTYPE svg PUBLIC "-//W3C//DTD SVG 1.1//EN" "http://www.w3.org/Graphics/SVG/1.1/DTD/svg11.dtd"><svg class="icon" width="200px" height="200.00px" viewBox="0 0 1024 1024" version="1.1" xmlns="http://www.w3.org/2000/svg"><path fill="currentColor" d="M886.656 76.672H140.8A88.128 88.128 0 0 0 51.968 165.44v564.736A88.832 88.832 0 0 0 140.8 822.528h152.704v127.872a48.64 48.64 0 0 0 49.728 49.664 63.232 63.232 0 0 0 35.52-14.144l163.392-163.392H883.2a88.064 88.064 0 0 0 88.768-88.832V165.504a83.136 83.136 0 0 0-85.248-88.768v-0.064zM623.808 602.24H240.256a46.208 46.208 0 1 1 0-92.352h383.552a46.208 46.208 0 1 1 0 92.352z m163.392-213.12H240.256a44.8 44.8 0 0 1-46.144-46.208 46.848 46.848 0 0 1 46.08-46.08H787.2a46.848 46.848 0 0 1 33.088 79.168 44.8 44.8 0 0 1-33.088 13.12z" /></svg>