<?xml version="1.0" standalone="no"?><!DOCTYPE svg PUBLIC "-//W3C//DTD SVG 1.1//EN" "http://www.w3.org/Graphics/SVG/1.1/DTD/svg11.dtd"><svg class="icon" width="200px" height="200.00px" viewBox="0 0 1024 1024" version="1.1" xmlns="http://www.w3.org/2000/svg"><path fill="currentColor" d="M842.624 363.84c71.936 75.328 116.48 157.568 116.48 246.656 0 147.328-61.632 253.568-171.328 315.2-82.176 44.544-181.568 65.152-280.96 65.152-239.808 0-438.528-123.392-441.92-383.744 0-92.544 44.544-178.176 116.48-250.112 24-24 51.392-44.544 78.784-65.088L273.92 281.6c-41.088-17.152-65.088-51.392-65.088-92.48 0-61.696 61.696-109.696 133.632-109.696 17.152 0 34.24 3.456 48 6.848 6.848 3.456 10.24 6.912 13.696 6.912 3.392 0 6.848 0 10.24-3.456l27.392-27.392c24-17.152 51.456-30.848 82.24-30.848 30.848 0 58.24 13.696 78.848 27.392 13.696 10.24 20.48 20.608 27.392 27.392 3.392 3.456 6.848 3.456 10.24 3.456 6.912-3.456 10.304-3.456 17.152-6.848 17.152-3.456 30.848-6.848 48-6.848 71.936 0 133.568 48 133.568 109.632 0 48-37.632 85.632-85.632 102.784 3.456 3.456 6.848 3.456 10.24 6.848 27.904 20.992 54.208 43.904 78.848 68.48z m-328.96 400.832a30.72 30.72 0 0 0 30.912-30.848v-54.784h82.176a30.72 30.72 0 0 0 30.848-30.848 30.72 30.72 0 0 0-30.848-30.848H544.64v-34.24h85.632a30.72 30.72 0 0 0 30.848-30.848 30.72 30.72 0 0 0-30.848-30.848H551.424l113.024-113.024c13.696-10.304 13.696-30.848 0-44.544a31.104 31.104 0 0 0-24-10.24 31.104 31.104 0 0 0-23.936 10.24L513.728 466.56 410.88 363.84a31.104 31.104 0 0 0-24-10.24 31.104 31.104 0 0 0-24 10.24c-13.696 10.24-13.696 30.784 0 44.544l113.088 113.024H393.792a30.72 30.72 0 0 0-30.848 30.848 30.72 30.72 0 0 0 30.848 30.848h85.632v34.24H393.792a30.72 30.72 0 0 0-30.848 30.848 30.72 30.72 0 0 0 30.848 30.848h89.088v54.784a30.72 30.72 0 0 0 30.848 30.848z" /></svg>