<?xml version="1.0" standalone="no"?><!DOCTYPE svg PUBLIC "-//W3C//DTD SVG 1.1//EN" "http://www.w3.org/Graphics/SVG/1.1/DTD/svg11.dtd"><svg class="icon" width="200px" height="200.00px" viewBox="0 0 1024 1024" version="1.1" xmlns="http://www.w3.org/2000/svg"><path fill="currentColor" d="M850.688 521.792a120.32 120.32 0 0 1-61.952-104.576h-128.768a116.48 116.48 0 0 1-16.64 60.672c-34.368 57.344-110.72 76.928-170.688 43.584L408.256 629.12c18.496 10.112 34.56 25.024 46.016 44.16 34.304 57.28 13.696 130.816-45.888 164.288l51.008 85.312H92.16V37.952h758.528v483.84zM218.624 227.584v63.168h505.6v-63.168h-505.6z m0 189.632v63.168h189.632V417.28H218.624z m0 189.568v63.232H344.96v-63.232H218.624z m721.536 174.976c9.088 15.168 21.824 27.008 36.544 35.2l-51.52 86.016c-47.872-26.432-108.864-10.752-136.32 35.072a92.864 92.864 0 0 0-13.248 48h-103.04c-0.32-53.184-44.8-96.256-99.712-96.256-18.112 0-35.2 4.736-49.856 12.992l-51.52-86.144c47.744-26.752 64.256-85.568 36.736-131.456a97.088 97.088 0 0 0-36.8-35.264l51.52-86.08c48 26.688 109.12 11.072 136.576-34.88 9.216-15.36 13.44-32.064 13.312-48.576h103.04c0 53.504 44.608 96.768 99.648 96.768 18.304 0 35.392-4.736 50.048-13.056l51.52 86.08c-47.872 26.752-64.448 85.632-36.928 131.584z m-215.872 27.328a75.84 75.84 0 1 0 0-151.68 75.84 75.84 0 0 0 0 151.68z" /></svg>