<?xml version="1.0" standalone="no"?><!DOCTYPE svg PUBLIC "-//W3C//DTD SVG 1.1//EN" "http://www.w3.org/Graphics/SVG/1.1/DTD/svg11.dtd"><svg class="icon" width="200px" height="200.00px" viewBox="0 0 1024 1024" version="1.1" xmlns="http://www.w3.org/2000/svg"><path fill="currentColor" d="M754.944 231.872v-112a56.064 56.064 0 0 0-56-56.064H138.176a56.064 56.064 0 0 0-56.064 56v784.384c0 30.912 25.152 56 56.064 56h616.64V231.872h0.128z m-224.32 541.632H231.68a37.504 37.504 0 0 1-37.376-37.44c0-20.544 16.768-37.376 37.376-37.376h299.072c20.544 0 37.376 16.832 37.376 37.376a37.632 37.632 0 0 1-37.504 37.44z m0-224.128H231.68A37.504 37.504 0 0 1 194.304 512c0-20.608 16.768-37.376 37.376-37.376h299.072c20.544 0 37.376 16.768 37.376 37.376a37.632 37.632 0 0 1-37.504 37.376zM605.44 325.312H231.68a37.504 37.504 0 0 1-37.44-37.376c0-20.608 16.832-37.44 37.376-37.44H605.44a37.504 37.504 0 0 1 0 74.752z m280.448-74.816h-56v709.696h56a56.192 56.192 0 0 0 56.064-56V306.56a56.192 56.192 0 0 0-56.064-56.064z" /></svg>