<?xml version="1.0" standalone="no"?><!DOCTYPE svg PUBLIC "-//W3C//DTD SVG 1.1//EN" "http://www.w3.org/Graphics/SVG/1.1/DTD/svg11.dtd"><svg class="icon" width="200px" height="200.00px" viewBox="0 0 1024 1024" version="1.1" xmlns="http://www.w3.org/2000/svg"><path fill="currentColor" d="M759.488 592.832a171.968 171.968 0 0 1 172.16 172.16 172.8 172.8 0 0 1-28.8 94.72l79.552 79.488a25.6 25.6 0 0 1 0 36.16l-12.544 12.544a25.6 25.6 0 0 1-36.096 0l-79.552-79.552c-27.2 18.304-59.648 28.8-94.72 28.8a171.968 171.968 0 0 1-172.16-172.16 171.968 171.968 0 0 1 172.16-172.16z m54.72-531.648a61.888 61.888 0 0 1 45.696 18.432 61.248 61.248 0 0 1 18.432 45.696v416.512a256.256 256.256 0 0 0-363.008 232.64c0 61.888 21.952 118.528 58.368 162.88H167.232a64.384 64.384 0 0 1-47.872-20.224 65.344 65.344 0 0 1-18.432-48.64V125.248A62.976 62.976 0 0 1 167.232 61.184z m-55.232 599.68c-57.6 0-103.616 46.528-103.616 103.616 0 57.536 46.592 103.552 103.68 103.552 16.192 0 30.848-4.16 44.416-10.432 21.44-9.92 38.72-27.2 48.64-48.64a103.04 103.04 0 0 0 10.496-44.48c0-57.6-46.08-103.68-103.616-103.68zM456.512 586.176H291.84a38.656 38.656 0 0 0-38.656 38.656c0 21.504 17.152 39.04 38.656 39.04h164.608a38.784 38.784 0 0 0 38.592-39.04 38.656 38.656 0 0 0-38.592-38.656z m123.776-145.728H291.456a39.232 39.232 0 0 0-39.04 39.04c0 10.112 3.904 20.224 11.392 27.264 7.424 7.04 17.536 10.944 27.648 10.944h289.28a39.68 39.68 0 0 0 27.2-10.944 37.504 37.504 0 0 0 11.392-27.264 39.232 39.232 0 0 0-39.04-39.04z m110.144-148.352H291.904a38.08 38.08 0 0 0-27.648 10.944 39.744 39.744 0 0 0-11.84 27.264c0 10.496 3.904 20.16 11.392 27.648a39.232 39.232 0 0 0 27.648 11.392h398.976a39.232 39.232 0 0 0 39.04-39.04 37.504 37.504 0 0 0-11.392-27.264 40.768 40.768 0 0 0-27.648-10.944z" /></svg>