<?xml version="1.0" standalone="no"?><!DOCTYPE svg PUBLIC "-//W3C//DTD SVG 1.1//EN" "http://www.w3.org/Graphics/SVG/1.1/DTD/svg11.dtd"><svg class="icon" width="200px" height="200.00px" viewBox="0 0 1024 1024" version="1.1" xmlns="http://www.w3.org/2000/svg"><path fill="currentColor" d="M512 0a609.92 609.92 0 0 0 207.36 103.04c85.12 26.24 234.24-30.08 234.24-30.08a3318.4 3318.4 0 0 1-10.88 542.72C912 848 512 1024 512 1024s-399.36-176.64-430.72-408.96a3318.4 3318.4 0 0 1-10.88-542.08s149.12 55.04 234.24 30.08A609.92 609.92 0 0 0 512 0z m-59.712 268.608c-59.712 0-108.48 58.048-108.48 128.704 0 34.048 10.88 64.32 27.968 87.04a40.064 40.064 0 0 1 2.496 65.6v1.28c-1.28 0-2.496 1.28-2.496 1.28a35.84 35.84 0 0 1-19.456 6.272c-46.336 16.448-85.376 41.664-108.544 73.216h1.28a50.176 50.176 0 0 0-8.576 28.992c0 30.272 24.384 55.552 54.848 55.552h321.92a54.784 54.784 0 0 0 56.064-55.488c0-12.672-4.864-24-10.944-34.112-23.168-31.552-59.776-55.488-104.896-70.656 0 0-18.304-5.056-23.168-7.552a38.208 38.208 0 0 1-15.808-31.552c0-13.888 10.944-25.216 18.304-34.112 18.24-22.656 28.032-52.992 28.032-87.04 0-70.656-48.832-127.36-108.544-127.36z m137.792 27.776c-8.576 0-17.088 1.28-24.384 3.84 18.304 27.712 28.032 60.48 28.032 97.088 0 39.104-13.44 76.992-36.608 108.48l-2.432 2.56v1.28c-2.432 2.496-6.08 6.272-7.296 10.048 0 1.28 0 1.28 1.28 1.28 2.368 1.28 6.016 2.56 9.728 2.56h1.216l4.864 2.496c49.92 16.384 92.672 45.44 120.704 81.984 12.16 16.448 19.52 35.328 19.52 55.552 0 11.328-2.496 20.16-6.144 30.272h35.392a48.96 48.96 0 0 0 49.92-49.216c-1.152-13.888-4.8-23.936-12.16-32.768-20.736-26.56-52.416-49.28-92.672-61.888 0 0-15.808-3.776-20.672-6.272a33.92 33.92 0 0 1-13.44-27.776c0-12.608 9.728-22.72 15.872-28.992 15.808-20.224 25.6-46.72 25.6-76.992 0-61.824-42.688-113.536-96.32-113.536z" /></svg>