<?xml version="1.0" standalone="no"?><!DOCTYPE svg PUBLIC "-//W3C//DTD SVG 1.1//EN" "http://www.w3.org/Graphics/SVG/1.1/DTD/svg11.dtd"><svg class="icon" width="200px" height="200.00px" viewBox="0 0 1024 1024" version="1.1" xmlns="http://www.w3.org/2000/svg"><path fill="currentColor" d="M512 0a609.92 609.92 0 0 0 207.36 103.04c85.12 26.24 234.24-30.08 234.24-30.08a3318.4 3318.4 0 0 1-10.88 542.72C912 848 512 1024 512 1024s-399.36-176.64-430.72-408.96a3318.4 3318.4 0 0 1-10.88-542.08s149.12 55.04 234.24 30.08A609.92 609.92 0 0 0 512 0zM289.92 441.92A199.808 199.808 0 0 0 593.28 626.496l98.24 93.44a37.504 37.504 0 0 0 52.864-1.28 37.504 37.504 0 0 0-1.28-52.864l-94.272-89.6a199.808 199.808 0 1 0-358.784-134.4zM498.432 325.76a130.368 130.368 0 1 1-18.176 260.032 130.368 130.368 0 0 1 18.176-260.032z" /></svg>