<?xml version="1.0" standalone="no"?><!DOCTYPE svg PUBLIC "-//W3C//DTD SVG 1.1//EN" "http://www.w3.org/Graphics/SVG/1.1/DTD/svg11.dtd"><svg class="icon" width="200px" height="200.00px" viewBox="0 0 1024 1024" version="1.1" xmlns="http://www.w3.org/2000/svg"><path fill="currentColor" d="M512 18.176c22.08 0 51.584 7.36 73.728 14.72l316.928 184.32c44.16 22.08 73.664 73.664 73.664 125.248v339.072c0 51.584-29.44 95.808-73.664 125.248L585.728 983.68c-22.144 14.72-51.648 22.144-73.728 22.144-29.44 0-51.584 0-73.728-14.72L121.344 799.36c-44.16-22.08-73.664-73.664-73.664-125.248V335.104c0-51.584 29.44-95.808 73.664-125.312L438.272 40.32C460.416 25.6 489.92 18.176 512 18.176z m294.784 287.424L512 482.56 217.216 313.024c-14.72-14.72-36.864-7.424-51.648 14.72-7.36 14.72 0 36.864 14.72 44.16l294.848 169.6a30.848 30.848 0 0 0 0.576 0.512l-0.128 0.448-0.448 6.4v294.784c0 22.144 14.72 36.864 36.864 36.864 22.08 0 36.864-14.72 36.864-36.864V548.864a45.952 45.952 0 0 0-0.512-6.976l0.512-0.384 294.784-169.6c14.72-7.296 22.144-29.44 14.72-51.52-7.36-14.72-29.44-22.144-51.584-14.72z" /></svg>