<?xml version="1.0" standalone="no"?><!DOCTYPE svg PUBLIC "-//W3C//DTD SVG 1.1//EN" "http://www.w3.org/Graphics/SVG/1.1/DTD/svg11.dtd"><svg class="icon" width="200px" height="200.00px" viewBox="0 0 1024 1024" version="1.1" xmlns="http://www.w3.org/2000/svg"><path fill="currentColor" d="M718.336 419.904a276.16 276.16 0 1 1 0 552.32 276.16 276.16 0 0 1 0-552.32zM550.72 51.776c50.048 0 90.688 39.936 92.032 89.6h119.68a64 64 0 0 1 64 64l0.064 184.192a320.64 320.64 0 0 0-346.624 521.344l-386.368-0.064a64 64 0 0 1-64-64V205.44a64 64 0 0 1 64-64h119.808l0.32-6.464c4.48-46.72 43.776-83.2 91.648-83.2h245.44z m91.648 664.448H577.216a7.808 7.808 0 0 0-7.168 5.248l-0.384 2.368v113.536c0 3.2 2.24 6.144 5.248 7.168l2.304 0.384h65.152c3.2 0 6.144-2.24 7.168-5.184l0.384-2.368V723.84a7.744 7.744 0 0 0-7.552-7.616z m108.032-169.088h-67.2a7.808 7.808 0 0 0-7.104 5.248l-0.448 2.368v281.152c0 3.2 2.304 6.08 5.248 7.168l2.368 0.384h67.136c3.2 0 6.08-2.304 7.168-5.248l0.384-2.304V554.752a7.744 7.744 0 0 0-7.552-7.616z m108.992 98.432h-64.128a7.808 7.808 0 0 0-7.168 5.248l-0.384 2.304v182.784c0 3.2 2.24 6.08 5.248 7.168l2.304 0.384h63.616a8.32 8.32 0 0 0 7.168-4.672l0.896-2.88v-182.784a7.744 7.744 0 0 0-7.552-7.552zM350.464 452.672H151.872a30.72 30.72 0 0 0-5.504 60.864l5.504 0.512h198.592a30.72 30.72 0 0 0 0-61.376z m157.44-155.456H151.872a30.72 30.72 0 0 0-5.504 60.864l5.504 0.512h356.032a30.72 30.72 0 0 0 0-61.376z m-1.92-184.064H350.016a30.72 30.72 0 0 0-5.504 60.864l5.504 0.512h155.968a30.72 30.72 0 1 0 0-61.376z" /></svg>