<?xml version="1.0" standalone="no"?><!DOCTYPE svg PUBLIC "-//W3C//DTD SVG 1.1//EN" "http://www.w3.org/Graphics/SVG/1.1/DTD/svg11.dtd"><svg class="icon" width="200px" height="200.00px" viewBox="0 0 1024 1024" version="1.1" xmlns="http://www.w3.org/2000/svg"><path fill="currentColor" d="M987.264 790.912l0.256-96.512s-63.68-12.608-64.832-16.896a292.736 292.736 0 0 0-3.776-13.888c7.424-13.76 43.328-44.16 43.328-44.16l-71.872-95.616s-46.528 38.336-58.112 43.776a210.816 210.816 0 0 0-17.024-5.76c-6.208-1.536-23.552-62.912-23.552-62.912l-96.64-0.832s-10.496 59.392-26.048 63.488a103.872 103.872 0 0 0-15.808 5.888c-11.52-5.632-58.112-44.544-58.112-44.544L523.2 620.16s36.032 36.224 38.4 48.32a246.4 246.4 0 0 0-4.288 11.648c-15.424 5.44-59.392 14.144-59.392 14.144l0.192 96.512s51.072 10.624 60.8 19.136c2.048 5.504 4.352 10.944 6.848 16.256-11.776 14.72-43.328 39.296-43.328 39.296l74.048 96.512s58.24-37.76 67.84-39.872c4.672 2.048 9.536 4.032 14.464 5.76 8.704 3.072 14.976 59.264 14.976 59.264l96.64 0.32s3.328-55.168 10.432-57.344c6.912-2.24 13.824-4.736 20.48-7.68 8.128 3.2 46.272 41.216 46.272 41.216l95.424-97.28s-35.456-24.448-45.248-37.696c2.688-5.504 5.12-11.072 7.296-16.768 3.2-8.768 62.208-21.12 62.208-21.12zM741.632 864a121.856 121.856 0 1 1 0-243.712 121.856 121.856 0 0 1 0 243.712zM431.68 493.504c110.784 0 223.552-108.928 223.552-224.32S547.904 36.48 437.056 36.48C326.4 36.48 216.064 156.672 216.064 272c0 115.328 104.832 221.504 215.616 221.504z m48.768 48H258.816c-55.424 0-138.56 28.928-166.208 115.328l-55.424 173.056c-13.952 43.456 189.056 65.536 390.912 64.832 67.008-0.192 21.376-55.232 21.376-124.992 0-158.976 135.68-228.16 30.976-228.16z" /></svg>